<svg xmlns="http://www.w3.org/2000/svg" width="19.676" height="19.375" viewBox="0 0 19.676 19.375">
    <path id="noun-home-4567783" d="M107.177,42.932V33.114a1.968,1.968,0,0,0-.824-1.6l-7.87-5.621a1.969,1.969,0,0,0-2.288,0l-7.87,5.621a1.968,1.968,0,0,0-.824,1.6v9.819A1.968,1.968,0,0,0,89.469,44.9h15.741a1.968,1.968,0,0,0,1.968-1.968Zm-6.559.656h4.591a.656.656,0,0,0,.656-.656V33.114a.656.656,0,0,0-.275-.534l-7.87-5.621a.656.656,0,0,0-.762,0l-7.87,5.621a.656.656,0,0,0-.275.534v9.819a.656.656,0,0,0,.656.656H94.06v-5.9a1.968,1.968,0,0,1,1.968-1.968h2.623a1.968,1.968,0,0,1,1.968,1.968Zm-1.312,0H95.371v-5.9a.656.656,0,0,1,.656-.656h2.623a.656.656,0,0,1,.656.656Z" transform="translate(-87.501 -25.525)" fill="#fff" fill-rule="evenodd" />
</svg>
  