<svg xmlns="http://www.w3.org/2000/svg" width="19.17" height="19.17" viewBox="0 0 19.17 19.17">
    <g id="noun-dashboard-4551644" transform="translate(-89.318 -528.522)">
        <path id="Path_1450" data-name="Path 1450" d="M86.615,13.322h5.026a.637.637,0,0,1,.637.638v7.685a.637.637,0,0,1-.637.637H83.956a.637.637,0,0,1-.638-.637V16.619a3.305,3.305,0,0,1,3.3-3.3Zm7.55,0h5.026a3.305,3.305,0,0,1,3.3,3.3v5.026a.637.637,0,0,1-.638.637H94.165a.637.637,0,0,1-.638-.637V13.96a.638.638,0,0,1,.638-.638Zm8.323,10.847V29.2a3.305,3.305,0,0,1-3.3,3.3H94.165a.637.637,0,0,1-.638-.638V24.169a.638.638,0,0,1,.638-.638h7.685a.638.638,0,0,1,.638.638ZM91.641,32.492H86.615a3.305,3.305,0,0,1-3.3-3.3V24.169a.637.637,0,0,1,.638-.638h7.685a.637.637,0,0,1,.637.638v7.685a.637.637,0,0,1-.637.638Z" transform="translate(6 515.2)" fill="#fff" />
    </g>
</svg>
  