<svg xmlns="http://www.w3.org/2000/svg" width="20.656" height="19.43" viewBox="0 0 20.656 19.43">
    <g id="noun-products-1375579" transform="translate(-114.803 -56)">
      <path id="Path_1451" data-name="Path 1451" d="M135.458,59.795a.182.182,0,0,0-.024-.1v-.024c-.024-.048-.024-.072-.048-.1L133.321,56.7A1.6,1.6,0,0,0,132,56H118.261a1.606,1.606,0,0,0-1.321.673l-2.066,2.882a.182.182,0,0,0-.048.1v.024c0,.024-.024.048-.024.1V73.941a1.5,1.5,0,0,0,1.489,1.489h17.653a1.5,1.5,0,0,0,1.489-1.489V59.819a.024.024,0,0,0,.024-.024ZM132,56.96a.638.638,0,0,1,.528.264l1.513,2.138h-5.909l-.7-2.4Zm-9.031,2.954.841-2.954h2.642l.841,2.954v3.939l-2.162-1.177-2.162,1.177Zm-5.236-2.69a.638.638,0,0,1,.528-.264H122.8l-.7,2.4H116.22ZM134.5,73.965a.533.533,0,0,1-.528.528H116.292a.533.533,0,0,1-.528-.528V60.323h6.245V64.19a.788.788,0,0,0,.36.649.705.705,0,0,0,.384.1.677.677,0,0,0,.36-.1l2.018-1.1,2.018,1.1a.75.75,0,0,0,.745-.024.734.734,0,0,0,.36-.649V60.323H134.5Z" fill="#fff"/>
      <path id="Path_1452" data-name="Path 1452" d="M319.764,134.878a.482.482,0,0,0-.48-.48h-2.4a.48.48,0,0,0,0,.961h2.4A.481.481,0,0,0,319.764,134.878Z" transform="translate(-192.953 -75.035)" fill="#fff"/>
    </g>
  </svg>
  