<svg id="Group_78" data-name="Group 78" xmlns="http://www.w3.org/2000/svg" xmlns:xlink="http://www.w3.org/1999/xlink" width="494.505" height="330" viewBox="0 0 494.505 330">
    <defs>
        <radialGradient id="radial-gradient" cx="0.496" cy="0.583" r="0.664" gradientTransform="translate(0.167) scale(0.667 1)" gradientUnits="objectBoundingBox">
            <stop offset="0.027" stop-color="#3f308a" />
            <stop offset="1" stop-color="#1c1254" />
        </radialGradient>
        <clipPath id="clip-path">
            <rect id="Rectangle_48" data-name="Rectangle 48" width="494.505" height="330" fill="none" />
        </clipPath>
        <radialGradient id="radial-gradient-2" cx="0.5" cy="0.5" r="0.695" gradientTransform="translate(0.211) scale(0.577 1)" gradientUnits="objectBoundingBox">
            <stop offset="0.144" stop-color="#fff" />
            <stop offset="0.151" stop-color="#fbfbfb" stop-opacity="0.988" />
            <stop offset="0.355" stop-color="#a3a3a3" stop-opacity="0.643" />
            <stop offset="0.534" stop-color="#5d5d5d" stop-opacity="0.369" />
            <stop offset="0.683" stop-color="#2a2a2a" stop-opacity="0.169" />
            <stop offset="0.794" stop-color="#0b0b0b" stop-opacity="0.047" />
            <stop offset="0.857" stop-opacity="0" />
        </radialGradient>
        <radialGradient id="radial-gradient-3" cx="0.5" cy="0.5" r="0.5" gradientTransform="translate(0.5 -0.207) rotate(45)" gradientUnits="objectBoundingBox">
            <stop offset="0" stop-color="#fff" />
            <stop offset="0.29" stop-color="#a5a5a5" stop-opacity="0.651" />
            <stop offset="0.544" stop-color="#5e5e5e" stop-opacity="0.373" />
            <stop offset="0.755" stop-color="#2b2b2b" stop-opacity="0.169" />
            <stop offset="0.912" stop-color="#0b0b0b" stop-opacity="0.047" />
            <stop offset="1" stop-opacity="0" />
        </radialGradient>
        <radialGradient id="radial-gradient-4" cx="0.5" cy="0.5" r="0.5" gradientTransform="matrix(0.707, 0.707, -0.707, 0.707, 0.5, -0.207)" xlink:href="#radial-gradient-3" />
        <radialGradient id="radial-gradient-5" cx="0.5" cy="0.5" r="0.911" gradientTransform="matrix(0.481, -0.553, 0.15, 0.392, 0.005, 0.493)" gradientUnits="objectBoundingBox">
            <stop offset="0.149" stop-color="#36178c" />
            <stop offset="0.344" stop-color="#3a1b8e" stop-opacity="0.98" />
            <stop offset="0.485" stop-color="#472b96" stop-opacity="0.914" />
            <stop offset="0.611" stop-color="#5e45a3" stop-opacity="0.8" />
            <stop offset="0.726" stop-color="#7e6ab5" stop-opacity="0.639" />
            <stop offset="0.835" stop-color="#a89acd" stop-opacity="0.431" />
            <stop offset="0.938" stop-color="#dad5ea" stop-opacity="0.18" />
            <stop offset="1" stop-color="#fff" stop-opacity="0" />
        </radialGradient>
        <radialGradient id="radial-gradient-6" cx="0.5" cy="0.5" fx="0.009949147701263428" r="0.965" gradientTransform="matrix(0.408, 0.707, -0.111, 0.192, 1.191, 2.711)" xlink:href="#radial-gradient-3" />
        <radialGradient id="radial-gradient-7" cx="0.5" cy="0.5" fx="-1.3896892070770264" r="0.495" gradientTransform="matrix(-2.027, 0.884, -1.041, -0.127, 5.982, -0.022)" xlink:href="#radial-gradient-3" />
        <radialGradient id="radial-gradient-8" cx="0.5" cy="0.5" fx="-1.389646291732788" r="0.495" gradientTransform="matrix(-2.027, 0.884, -1.041, -0.127, 0.34, -0.176)" xlink:href="#radial-gradient-3" />
        <radialGradient id="radial-gradient-9" cx="0.5" cy="0.5" fx="0.06446287781000137" r="2.148" gradientTransform="matrix(-0.23, -0.039, 0.002, -0.271, 3.323, 42.25)" xlink:href="#radial-gradient-3" />
        <radialGradient id="radial-gradient-10" cx="0.5" cy="0.5" fx="0.06445665657520294" r="2.148" gradientTransform="matrix(-0.23, -0.039, 0.002, -0.271, 2.276, 33.105)" xlink:href="#radial-gradient-3" />
        <radialGradient id="radial-gradient-11" cx="0.5" cy="0.5" fx="0.06445159018039703" r="2.148" gradientTransform="matrix(-0.23, -0.039, 0.002, -0.271, 1.499, 24.152)" xlink:href="#radial-gradient-3" />
        <linearGradient id="linear-gradient" x1="1.46" y1="-0.118" x2="0.101" y2="0.757" gradientUnits="objectBoundingBox">
            <stop offset="0" stop-color="#4f33a3" />
            <stop offset="1" stop-color="#220970" />
        </linearGradient>
        <linearGradient id="linear-gradient-2" x1="1.671" y1="0.879" x2="0.414" y2="0.472" xlink:href="#linear-gradient" />
        <linearGradient id="linear-gradient-3" x1="1.496" y1="1.726" x2="0.596" y2="0.618" xlink:href="#linear-gradient" />
        <linearGradient id="linear-gradient-4" x1="0.159" y1="0.142" x2="0.85" y2="0.867" gradientUnits="objectBoundingBox">
            <stop offset="0" stop-color="#7760bd" />
            <stop offset="1" stop-color="#c17fff" />
        </linearGradient>
        <linearGradient id="linear-gradient-5" x1="0.158" y1="0.136" x2="0.85" y2="0.872" gradientUnits="objectBoundingBox">
            <stop offset="0" stop-color="#6244bd" />
            <stop offset="1" stop-color="#2f118a" />
        </linearGradient>
        <linearGradient id="linear-gradient-6" x1="0.158" y1="0.209" x2="0.823" y2="1.301" xlink:href="#linear-gradient" />
        <radialGradient id="radial-gradient-12" cx="0.5" cy="0.5" r="0.5" gradientTransform="matrix(0, 1, -1, 0, 2.055, 1.021)" xlink:href="#radial-gradient-3" />
        <radialGradient id="radial-gradient-13" cx="0.5" cy="0.5" r="0.5" gradientTransform="matrix(0, 1, -1, 0, 7.138, -0.704)" xlink:href="#radial-gradient-3" />
        <linearGradient id="linear-gradient-7" x1="0.156" y1="0.097" x2="0.853" y2="0.913" gradientUnits="objectBoundingBox">
            <stop offset="0" stop-color="#7f70d1" />
            <stop offset="1" stop-color="#402f9e" />
        </linearGradient>
        <filter id="Path_58" x="159.006" y="139.83" width="166.243" height="93.227" filterUnits="userSpaceOnUse">
            <feOffset dx="-1" dy="7" input="SourceAlpha" />
            <feGaussianBlur stdDeviation="1" result="blur" />
            <feFlood flood-color="#7d7887" flood-opacity="0.749" />
            <feComposite operator="in" in2="blur" />
            <feComposite in="SourceGraphic" />
        </filter>
        <linearGradient id="linear-gradient-8" x1="0.5" y1="-0.555" x2="0.5" y2="0.783" gradientUnits="objectBoundingBox">
            <stop offset="0" stop-color="#d065d6" />
            <stop offset="1" stop-color="#fff" stop-opacity="0" />
        </linearGradient>
        <linearGradient id="linear-gradient-9" x1="0.601" y1="0.796" x2="0.43" y2="0.358" gradientUnits="objectBoundingBox">
            <stop offset="0" stop-color="#c3aaff" />
            <stop offset="0.081" stop-color="#a78de9" />
            <stop offset="0.209" stop-color="#8166ca" />
            <stop offset="0.327" stop-color="#654ab5" />
            <stop offset="0.431" stop-color="#5439a7" />
            <stop offset="0.507" stop-color="#4f33a3" />
            <stop offset="0.701" stop-color="#361c87" />
            <stop offset="0.873" stop-color="#270e76" />
            <stop offset="1" stop-color="#220970" />
        </linearGradient>
        <linearGradient id="linear-gradient-90" x1="0.378" y1="0.291" x2="0.626" y2="0.763" gradientUnits="objectBoundingBox">
            <stop offset="0" stop-color="#fff" />
            <stop offset="0.509" stop-color="#f0ebff" />
            <stop offset="0.999" stop-color="#dfd4ff" />
        </linearGradient>
        <linearGradient id="linear-gradient-91" x1="0.5" y1="1.001" x2="0.5" y2="-0.018" gradientUnits="objectBoundingBox">
            <stop offset="0" stop-color="#fff" />
            <stop offset="0.075" stop-color="#fff" stop-opacity="0.82" />
            <stop offset="0.166" stop-color="#fff" stop-opacity="0.627" />
            <stop offset="0.262" stop-color="#fff" stop-opacity="0.459" />
            <stop offset="0.362" stop-color="#fff" stop-opacity="0.318" />
            <stop offset="0.465" stop-color="#fff" stop-opacity="0.204" />
            <stop offset="0.575" stop-color="#fff" stop-opacity="0.114" />
            <stop offset="0.692" stop-color="#fff" stop-opacity="0.051" />
            <stop offset="0.824" stop-color="#fff" stop-opacity="0.012" />
            <stop offset="1" stop-color="#fff" stop-opacity="0" />
        </linearGradient>
        <radialGradient id="radial-gradient-14" cx="0.5" cy="0.5" r="1.191" gradientTransform="matrix(0.306, -0.662, 0.132, 0.366, 0.596, 1.605)" gradientUnits="objectBoundingBox">
            <stop offset="0" stop-color="#8171d6" />
            <stop offset="0.15" stop-color="#8273d6" stop-opacity="0.984" />
            <stop offset="0.273" stop-color="#8879d8" stop-opacity="0.937" />
            <stop offset="0.388" stop-color="#9385db" stop-opacity="0.855" />
            <stop offset="0.497" stop-color="#a195e0" stop-opacity="0.741" />
            <stop offset="0.601" stop-color="#b3aae6" stop-opacity="0.596" />
            <stop offset="0.703" stop-color="#cac3ed" stop-opacity="0.416" />
            <stop offset="0.801" stop-color="#e4e1f6" stop-opacity="0.208" />
            <stop offset="0.884" stop-color="#fff" stop-opacity="0" />
        </radialGradient>
        <linearGradient id="linear-gradient-92" x1="0.441" y1="0.15" x2="0.89" y2="0.892" xlink:href="#linear-gradient-7" />
        <linearGradient id="linear-gradient-93" x1="0.169" y1="1.027" x2="0.527" y2="0.185" xlink:href="#linear-gradient-4" />
        <radialGradient id="radial-gradient-15" cx="0.5" cy="0.5" r="0.5" gradientTransform="translate(4.384 -0.468) rotate(90)" gradientUnits="objectBoundingBox">
            <stop offset="0" stop-color="#fff" />
            <stop offset="0.016" stop-color="#f6f6f6" stop-opacity="0.969" />
            <stop offset="0.133" stop-color="#bdbdbd" stop-opacity="0.745" />
            <stop offset="0.252" stop-color="#8a8a8a" stop-opacity="0.545" />
            <stop offset="0.373" stop-color="#606060" stop-opacity="0.376" />
            <stop offset="0.494" stop-color="#3d3d3d" stop-opacity="0.239" />
            <stop offset="0.617" stop-color="#222" stop-opacity="0.133" />
            <stop offset="0.74" stop-color="#0f0f0f" stop-opacity="0.059" />
            <stop offset="0.867" stop-color="#030303" stop-opacity="0.016" />
            <stop offset="1" stop-opacity="0" />
        </radialGradient>
        <radialGradient id="radial-gradient-16" cx="0.5" cy="0.5" r="0.5" gradientTransform="translate(5.512 4.184) rotate(90)" gradientUnits="objectBoundingBox">
            <stop offset="0" stop-color="#d065d6" />
            <stop offset="0.337" stop-color="#803e83" stop-opacity="0.616" />
            <stop offset="0.657" stop-color="#3b1c3c" stop-opacity="0.286" />
            <stop offset="0.885" stop-color="#100710" stop-opacity="0.078" />
            <stop offset="1" stop-opacity="0" />
        </radialGradient>
        <radialGradient id="radial-gradient-17" cx="0.5" r="0.5" gradientTransform="translate(6.838 -3.569) rotate(90)" xlink:href="#radial-gradient-15" />
        <radialGradient id="radial-gradient-18" cx="0.5" r="0.5" gradientTransform="translate(6.938 0.987) rotate(90)" xlink:href="#radial-gradient-16" />
        <radialGradient id="radial-gradient-19" cx="0.5" r="0.568" gradientTransform="matrix(-0.874, 0.879, -0.096, -0.029, 2.35, 3.214)" xlink:href="#radial-gradient-15" />
        <radialGradient id="radial-gradient-20" cx="0.5" r="0.927" gradientTransform="matrix(-0.539, 0, 0, -0.539, 1.597, 16.996)" xlink:href="#radial-gradient-16" />
        <radialGradient id="radial-gradient-21" cx="0.5" r="0.564" gradientTransform="matrix(0.88, 0.886, -0.101, 0.028, 0.296, 0.38)" xlink:href="#radial-gradient-15" />
        <radialGradient id="radial-gradient-22" cx="0.5" r="0.5" gradientTransform="matrix(0, 1, -1, 0, 6.778, 0.983)" xlink:href="#radial-gradient-16" />
        <radialGradient id="radial-gradient-23" cx="0.5" r="0.564" gradientTransform="matrix(-0.88, 0.886, 0.101, 0.028, 1.331, 1.053)" xlink:href="#radial-gradient-15" />
        <radialGradient id="radial-gradient-24" cx="0.5" r="0.927" gradientTransform="matrix(-0.539, 0, 0, 0.539, 1.888, 3.322)" xlink:href="#radial-gradient-16" />
        <radialGradient id="radial-gradient-25" cx="0.5" r="0.568" gradientTransform="matrix(0.874, 0.879, 0.096, -0.029, -0.359, 4.052)" xlink:href="#radial-gradient-15" />
        <radialGradient id="radial-gradient-26" cx="0.5" r="0.5" gradientTransform="matrix(0, 1, 1, 0, -6.212, 6.211)" xlink:href="#radial-gradient-16" />
    </defs>
    <g id="BACKGROUND">
        <rect id="Rectangle_47" data-name="Rectangle 47" width="494.505" height="330" fill="url(#radial-gradient)" />
    </g>
    <g id="OBJECTS">
        <g id="Group_77" data-name="Group 77">
            <g id="Group_76" data-name="Group 76" clip-path="url(#clip-path)">
                <path id="Path_50" data-name="Path 50" d="M-26.259,211.233l-40.009-23.1-.627.363,40.009,23.1Zm-3.11,1.8-40.009-23.1-.628.363,40.01,23.1Zm-6.22,3.591-40.009-23.1-.627.363,40.009,23.1ZM-48.027,223.8l-40.009-23.1-.628.363,40.01,23.1Zm6.22-3.591-40.01-23.1-.627.363,40.009,23.1Zm3.11-1.8-40.009-23.1-.628.362,40.01,23.1Zm6.22-3.591-40.01-23.1-.627.363,40.009,23.1Zm9.329-5.387-40.01-23.1-.627.363,40.009,23.1Zm9.329-5.386-40.009-23.1-.627.362,40.009,23.1Zm-31.1,17.954-40.009-23.1-.627.363,40.009,23.1Zm27.988-16.159-40.009-23.1-.627.362,40.009,23.1Zm-3.11,1.8-40.009-23.1-.628.363,40.01,23.1ZM194.082,84.019l-40.009-23.1-.628.362,40.01,23.1ZM178.533,93,138.524,69.9l-.627.362,40.009,23.1Zm3.11-1.8-40.01-23.1-.627.362,40.009,23.1Zm21.768-12.568L163.4,55.534l-.628.362L202.784,79Zm3.11-1.8-40.009-23.1-.627.362,40.009,23.1Zm-6.22,3.591-40.009-23.1-.627.362,40.009,23.1Zm9.33-5.386-40.01-23.1-.627.362L209,75.4Zm3.109-1.8-40.009-23.1-.628.362,40.009,23.1ZM184.753,89.405l-40.009-23.1-.628.362,40.01,23.1Zm6.22-3.591-40.01-23.1-.627.362,40.009,23.1Zm-3.11,1.8-40.009-23.1-.627.362,40.009,23.1Zm9.329-5.386-40.009-23.1-.627.362,40.009,23.1ZM178.548,344.566l40.009,23.1.628-.362-40.01-23.1Zm-3.11,1.8,40.009,23.1.627-.362L176.066,346Zm-3.11,1.8,40.009,23.1.627-.362-40.009-23.1Zm9.329-5.386,40.01,23.1.627-.362-40.009-23.1Zm-12.439,7.181,40.009,23.1.628-.362-40.01-23.1ZM200.316,332l40.01,23.1.627-.362-40.009-23.1Zm-3.11,1.8,40.009,23.1.628-.362-40.01-23.1Zm-3.11,1.8,40.009,23.1.627-.362-40.009-23.1Zm9.329-5.386,40.009,23.1.627-.362-40.009-23.1Zm-18.658,10.773,40.009,23.1.627-.362-40.009-23.1Zm6.219-3.591,40.01,23.1.627-.362-40.009-23.1Zm-3.11,1.8,40.009,23.1.628-.362-40.01-23.1Zm232.78-134.4,40.009,23.1.628-.362-40.01-23.1Zm3.11-1.8,40.01,23.1.627-.363-40.009-23.1Zm6.22-3.591L470,222.5l.627-.363-40.009-23.1Zm-3.109,1.8,40.009,23.1.627-.362-40.009-23.1Zm-9.329,5.386,40.009,23.1.627-.362-40.009-23.1Zm-18.658,10.773,40.009,23.1.627-.362-40.009-23.1Zm15.548-8.977,40.01,23.1.627-.362-40.009-23.1ZM402,215.557l40.009,23.1.628-.362-40.01-23.1Zm-6.219,3.591,40.009,23.1.628-.362-40.009-23.1Zm9.329-5.386,40.01,23.1.627-.362-40.009-23.1Zm6.22-3.591,40.009,23.1.628-.362-40.01-23.1Zm-3.109,1.8,40.009,23.1.627-.363-40.009-23.1ZM41.612,332.761l55.022-31.767H74.614L43.589,318.907a2.639,2.639,0,0,0-2,.154.719.719,0,0,0,0,1.362,2.607,2.607,0,0,0,2.359,0c.542-.313.627-.786.266-1.154l30.765-17.762H94.49L40.984,332.4ZM59,335.278a.719.719,0,0,0,0,1.362,2.607,2.607,0,0,0,2.359,0c.542-.313.627-.786.267-1.153L89.4,319.456l-.627-.362L61,335.124A2.64,2.64,0,0,0,59,335.278ZM6.561,255.68l73.611-42.5-.627-.362-73.612,42.5Zm-2.01-17.193V225.076H3.664V238.7L9.7,242.186l37.63-21.726L-61.28,157.753l-.627.363L46.076,220.46l-36.374,21Zm-2.594,8.17L5.684,244.5l-6.048-3.492V226.694l-12.852,7.42,6.514,3.761.627-.362-5.886-3.4,10.709-6.183v13.295l5.68,3.279-2.472,1.428-17.33-10.005-.628.362Zm48.306,89.736c.542-.313.626-.786.266-1.154L88.41,313.368l-.627-.362L49.9,334.877a2.638,2.638,0,0,0-2,.154.719.719,0,0,0,0,1.362A2.608,2.608,0,0,0,50.262,336.393ZM76.8,353.076l.627.362,35.545-20.522v-7.794l11.192,6.462L81.869,356l.627.362,42.922-24.781-13.335-7.7V332.7ZM-9.575,211.742l-24.471,14.129,14.877,8.59L5.3,220.332Zm13.622,8.59-23.216,13.4-13.622-7.865,23.215-13.4ZM132.132,356.376l-.627-.362-16.491,9.521.628.363Zm-37.7.72,37.625-21.722,33.83,19.531H148.758l-17.489-10.1-34.4,19.858.627.362,33.768-19.5,17.121,9.885h19.644l-35.972-20.769L93.809,356.734Zm59.636-4.757L132.614,339.95,98.676,359.544l.627.362,33.31-19.231L153.444,352.7Zm-16.6,10.783-21.638,12.493.627.362L138.1,363.484Zm-2.62,18.72,36.5-21.071H158.428l-30.035,17.34.627.362L158.8,361.283h10.412l-34.981,20.2ZM33.875,220.716,11.381,233.7V218.146L-9.548,206.063-44.8,226.417l46.245,26.7L59.4,219.654l-121.065-69.9-.627.362L58.147,219.654l-56.7,32.738-44.99-25.975,34-19.629,20.042,11.571v16.58L35.13,220.716l-110.161-63.6-93.794,54.152.627.362,93.166-53.789ZM177.064,360.631,133.474,385.8l.628.362,42.962-24.8,34.691,20.029,45.88-26.489L176.758,308.2l-.627.362L256.38,354.9,211.755,380.66Zm-30.437,3.752-10.612-6.127L116.543,369.5l-7.863-4.54,23.712-13.691,11.7,6.755h27.382v-.513H144.46l-12.067-6.966-24.968,14.415,9.118,5.264,19.472-11.242,9.356,5.4L120.829,378.5l.626.363ZM35.793,329.4l.627.362L79.7,304.779l-.627-.362ZM251.7,102.467,233.743,92.1l-.627.362,17.33,10-2.471,1.427-5.681-3.279H219.267l10.709-6.183,5.886,3.4.628-.362-6.514-3.76-12.852,7.42h24.8l6.048,3.492Zm-36-20.786L191.227,95.809l14.878,8.59,24.47-14.128Zm13.622,8.59-23.215,13.4-13.622-7.865,23.215-13.4Zm-33.267-83.5L106.9,58.242l13,7.5L209.05,14.271Zm11.741,7.5-87.9,50.75-11.742-6.779,87.9-50.75Zm30.123,89.182h-23.6v.512H237.55l5.151,2.974-36.374,21L98.344,65.595l-.627.362,108.61,62.706,37.629-21.725ZM216.644,75.471,181.39,95.825l20.93,12.083h26.944L206.769,120.9,97.862,58.018l93.167-53.79-.628-.362L96.607,58.018l110.162,63.6L231.406,107.4H202.687L182.645,95.825l34-19.629,44.99,25.975-56.7,32.738L84.493,65.374l-.628.362,121.065,69.9,57.959-33.463ZM195.1,12.1l-78.97,45.594,4.713,2.721,78.97-45.593Zm3.458,2.721L120.844,59.689l-3.458-2L195.1,12.823Zm100.695,164.2c.542-.313.626-.786.266-1.153l34.313-19.81V139.023l-56.664,32.715.627.362,55.149-31.841v17.582L298.892,177.5a2.639,2.639,0,0,0-2,.154.719.719,0,0,0,0,1.362A2.608,2.608,0,0,0,299.253,179.018Zm26.47-24.435a.719.719,0,0,0,0-1.363,2.611,2.611,0,0,0-2.359,0c-.542.313-.626.786-.266,1.154l-48.145,27.8a2.638,2.638,0,0,0-2,.154.719.719,0,0,0,0,1.362,2.608,2.608,0,0,0,2.36,0c.542-.313.626-.786.266-1.154l48.145-27.8A2.642,2.642,0,0,0,325.723,154.583ZM276.347,93.972,311.408,73.73l-.627-.362L275.46,93.76v13.12l-83.614,48.275-75.9-43.823v-16L74.276,71.274l-.628.362,41.407,23.906v16l76.791,44.335,84.5-48.787Zm-82.631,53.653,73.612-42.5-.628-.362-73.611,42.5ZM182.428,142.1l.627-.362-54.908-31.7V99.143l64.342,37.147.627-.362L127.261,97.906v12.342ZM247.1,41.357l-36.5,21.071h12.923l30.035-17.341-.627-.362L223.164,61.916H212.752l34.981-20.2ZM284.459,58.17l-33.768,19.5-17.121-9.885H213.925L249.9,88.551l38.253-22.086-.627-.362L249.9,87.826l-33.83-19.532H233.2l17.489,10.1,34.4-19.859Zm-79.564,4.4L248.486,37.4l-.628-.362-42.962,24.8L170.2,41.814,124.323,68.3,205.2,115l.627-.362L125.579,68.3,170.2,42.539ZM330,134.667a2.608,2.608,0,0,0-2.36,0c-.542.313-.626.786-.266,1.153L258.71,175.463l.628.362L328,136.183a2.64,2.64,0,0,0,2-.154A.719.719,0,0,0,330,134.667ZM227.887,70.86l21.458,12.389,33.938-19.594-.627-.362-33.31,19.232L228.516,70.5Zm72.2-3.665-.627-.362L256.541,91.615l13.335,7.7V90.494L305.16,70.122l-.627-.362L268.988,90.281v7.795L257.8,91.615Zm-50.264-.372.628.362,16.491-9.522-.628-.362ZM209.048,27,191.512,37.126l14.4,8.316,17.536-10.125ZM222.2,35.318l-16.28,9.4-13.149-7.591,16.28-9.4Zm13.135,23.5,10.612,6.127L265.415,53.7l7.863,4.54-23.712,13.69-11.7-6.754H210.486v.512H237.5l12.067,6.967,24.968-14.415-9.119-5.265L245.943,64.219l-9.355-5.4L261.13,44.7l-.626-.363Zm-25.353-37.08L182.392,37.664l22.592,13.044,27.587-15.927Zm21.337,13.044-26.331,15.2L183.648,37.664l26.331-15.2Zm13.169,25.3,21.638-12.493-.628-.362L243.857,59.715ZM211.091,15.449,171.5,38.306,203.873,57l39.589-22.857Zm31.116,18.689L203.873,56.27,172.757,38.306l38.334-22.132ZM321.8,131.3c-.542.313-.626.786-.266,1.153l-68.663,39.643.628.362,68.662-39.643a2.638,2.638,0,0,0,2-.154.719.719,0,0,0,0-1.362A2.608,2.608,0,0,0,321.8,131.3Zm-214.764,52.39a2.607,2.607,0,0,0,2.359,0,.719.719,0,0,0,0-1.362,2.644,2.644,0,0,0-2-.154l-48.144-27.8c.36-.368.276-.841-.266-1.154a2.608,2.608,0,0,0-2.36,0,.719.719,0,0,0,0,1.362,2.643,2.643,0,0,0,2,.154l48.144,27.8C106.411,182.9,106.5,183.374,107.038,183.686Zm16.6-8.223L54.979,135.821c.36-.367.275-.84-.266-1.153a2.608,2.608,0,0,0-2.36,0,.719.719,0,0,0,0,1.362,2.642,2.642,0,0,0,2,.154l68.662,39.642ZM316.615,293.808l-56.663-32.715-.627.362L314.472,293.3H284.021l-34.052-19.66c.361-.368.276-.841-.266-1.154a2.607,2.607,0,0,0-2.359,0,.719.719,0,0,0,0,1.362,2.638,2.638,0,0,0,2,.154l34.312,19.81ZM18.157,114.562c.36-.368.276-.841-.266-1.154a2.607,2.607,0,0,0-2.359,0,.719.719,0,0,0,0,1.362,2.64,2.64,0,0,0,2,.154L44.47,130.478v6.207L20.516,122.855l-.628.362,25.469,14.7v-7.656ZM258.71,247.429l68.662,39.643c-.36.367-.275.84.266,1.153a2.607,2.607,0,0,0,2.359,0,.719.719,0,0,0,0-1.362,2.638,2.638,0,0,0-2-.154l-68.662-39.642ZM5.05,126.238c.36-.368.276-.841-.266-1.154a2.608,2.608,0,0,0-2.36,0,.719.719,0,0,0,0,1.362,2.642,2.642,0,0,0,2,.154l30.765,17.761v11.264L-18.32,124.733l-.627.362,55.022,31.767V144.149Zm18.317-14.684,27.2,15.7H63.829l-25.469-14.7-.627.362,23.954,13.829H50.935L23.994,111.191c.361-.367.276-.841-.266-1.154a2.611,2.611,0,0,0-2.359,0,.719.719,0,0,0,0,1.363A2.644,2.644,0,0,0,23.367,111.554Zm-47.034,25.1L4.1,152.684l.627-.362L-23.04,136.291c.36-.367.276-.84-.266-1.153a2.607,2.607,0,0,0-2.359,0,.719.719,0,0,0,0,1.362A2.638,2.638,0,0,0-23.667,136.654Zm10.538-14.918-.627.362L29.52,147.085l.627-.362ZM48.52,139.024v19.031l34.313,19.81c-.361.368-.276.841.266,1.154a2.607,2.607,0,0,0,2.359,0,.719.719,0,0,0,0-1.362,2.642,2.642,0,0,0-2-.154l-34.052-19.66V140.261l55.149,31.84.627-.362Zm193.1,119.637a2.608,2.608,0,0,0-2.36,0,.719.719,0,0,0,0,1.362,2.642,2.642,0,0,0,2,.154l48.144,27.8c-.36.368-.275.841.266,1.154a2.608,2.608,0,0,0,2.36,0,.719.719,0,0,0,0-1.362,2.639,2.639,0,0,0-2-.154l-48.144-27.8C242.243,259.447,242.159,258.974,241.617,258.661Zm-100.883-94.43a2.608,2.608,0,0,0,2.36,0,.719.719,0,0,0,0-1.362,2.639,2.639,0,0,0-2-.154l-48.144-27.8c.36-.367.275-.84-.267-1.153a2.607,2.607,0,0,0-2.359,0,.719.719,0,0,0,0,1.362,2.643,2.643,0,0,0,2,.154l48.143,27.8C140.109,163.445,140.193,163.918,140.735,164.232ZM53.983,82.99l-.627.362L88.77,103.8l.627-.363ZM55.239,91.1l32.544,18.79.628-.362L55.867,90.735c.36-.368.276-.841-.266-1.154a2.608,2.608,0,0,0-2.36,0,.719.719,0,0,0,0,1.362A2.639,2.639,0,0,0,55.239,91.1Zm184.019,71.772a.719.719,0,0,0,0,1.362,2.607,2.607,0,0,0,2.36,0c.542-.313.626-.786.266-1.154l48.145-27.8a2.641,2.641,0,0,0,2-.154.719.719,0,0,0,0-1.362,2.607,2.607,0,0,0-2.359,0c-.542.313-.627.786-.266,1.154l-48.145,27.8A2.639,2.639,0,0,0,239.258,162.869Zm10.084-13.975a2.641,2.641,0,0,0-2,.154.719.719,0,0,0,0,1.362,2.607,2.607,0,0,0,2.359,0c.542-.313.627-.786.266-1.153l34.052-19.66h30.452l-55.149,31.841.628.362,56.664-32.715H283.654ZM36.422,93.129l-.627.362,43.277,24.986.627-.362Zm7.169,10.858L74.615,121.9h22.02L41.613,90.131l-.627.362,53.506,30.892H74.983L44.218,103.624c.36-.367.276-.841-.266-1.153a2.607,2.607,0,0,0-2.359,0,.719.719,0,0,0,0,1.362A2.641,2.641,0,0,0,43.59,103.986Zm231.724,135.22a2.607,2.607,0,0,0-2.359,0,.719.719,0,0,0,0,1.362,2.638,2.638,0,0,0,2,.154l48.144,27.8c-.36.367-.276.841.266,1.153a2.607,2.607,0,0,0,2.359,0,.719.719,0,0,0,0-1.362,2.64,2.64,0,0,0-2-.154l-48.145-27.8C275.94,239.992,275.856,239.519,275.314,239.206ZM-3.8,175.324H15.066l54.908,31.7.627-.362L15.434,174.812H-5.943l65.856,38.022.628-.362ZM333.831,283.869V264.838l-34.312-19.81c.36-.368.276-.841-.266-1.154a2.607,2.607,0,0,0-2.359,0,.719.719,0,0,0,0,1.362,2.64,2.64,0,0,0,2,.154l34.052,19.66v17.582L277.8,250.792l-.628.362ZM153.587,155.5c-.361.367-.276.841.266,1.154a2.607,2.607,0,0,0,2.359,0,.719.719,0,0,0,0-1.362,2.64,2.64,0,0,0-2-.154l-51.1-29.5H71.525L25.816,99.252l-.627.362,45.969,26.54h31.593Zm-87.85-26.42L122.4,161.8l.628-.362L67.879,129.6H98.33l34.052,19.66c-.36.368-.275.841.267,1.154a2.611,2.611,0,0,0,2.359,0,.719.719,0,0,0,0-1.363,2.642,2.642,0,0,0-2-.154L98.7,129.084ZM457.554,254.813l78.97-45.593-4.712-2.721-78.97,45.593Zm-3.457-2.721,77.716-44.869,3.457,2-77.716,44.869Zm-52.988-85.531,35.545-20.522-.627-.362-35.285,20.371H385.465l13.335,7.7,42.922-24.781-.628-.362L398.8,173.023l-11.192-6.462Zm-95.132,68.575c.361-.367.276-.84-.266-1.153a2.607,2.607,0,0,0-2.36,0,.719.719,0,0,0,0,1.362,2.642,2.642,0,0,0,2,.154l55.635,32.121h23.062l34.76,20.069.628-.362-35.021-20.219H361.352ZM288.745,211.1l83.615-48.275h22.724L430.4,142.433l-.628-.362-35.061,20.242H371.992l-84.5,48.787,76.791,44.335H392L433.4,279.341l.627-.362-41.667-24.056H364.648Zm87.282-43.218-.628-.362-73.611,42.5.627.363Zm64.053,30.47V187.01l-17.121-9.885,33.768-19.5-.628-.362-34.4,19.859,17.489,10.1v9.892l-33.83-19.532,37.625-21.723-.627-.362-38.253,22.086ZM358.3,203.389l80.877,46.694,45.881-26.489-34.691-20.029,42.962-24.8-.627-.363-43.591,25.167L483.8,223.594l-44.625,25.765-80.249-46.332Zm95.754-22.318,21.638-12.493-.627-.362-21.638,12.493ZM345.93,329.764l.628-.362-43.276-24.986-.628.362ZM480.054,171.1l-24.448,14.169-9.356-5.4,19.472-11.243L456.6,163.36l-24.968,14.415,12.066,6.967v15.6h.888V184.528l-11.7-6.754,23.713-13.69,7.863,4.54L445,179.866l10.612,6.127,25.076-14.533Zm-44.679,18.83L414.545,177.9l33.31-19.232-.627-.362L413.29,177.9l21.457,12.389Zm44.639-14.1-.627-.362-30.035,17.34v7.461l36.5-21.071-.628-.363-34.981,20.2v-6.012ZM93.881,100.093v13.314l55.635,32.121c-.36.368-.275.841.266,1.153a2.608,2.608,0,0,0,2.36,0,.719.719,0,0,0,0-1.362,2.643,2.643,0,0,0-2-.154L94.767,113.195V99.88L59.748,79.661l-.627.363Zm265.1,211.246-27.2-15.7H318.523l25.469,14.7.627-.362-23.953-13.829h10.75l26.94,15.555c-.36.367-.276.84.266,1.153a2.608,2.608,0,0,0,2.36,0,.719.719,0,0,0,0-1.362A2.642,2.642,0,0,0,358.985,311.339ZM60.188,132.813l68.662,39.643.628-.362L60.817,132.451c.36-.368.276-.841-.266-1.154a2.607,2.607,0,0,0-2.359,0,.719.719,0,0,0,0,1.362A2.637,2.637,0,0,0,60.188,132.813ZM322.163,290.08,253.5,250.437l-.627.362,68.662,39.642c-.36.368-.276.841.266,1.154a2.607,2.607,0,0,0,2.359,0,.719.719,0,0,0,0-1.362A2.639,2.639,0,0,0,322.163,290.08Zm16.6,28.827-31.025-17.912h-22.02l55.022,31.767.628-.362L287.86,301.506h19.509l30.764,17.762c-.36.367-.276.84.267,1.153a2.607,2.607,0,0,0,2.359,0,.719.719,0,0,0,0-1.362A2.639,2.639,0,0,0,338.762,318.907Zm-110-51.519c.36-.367.276-.84-.266-1.153a2.607,2.607,0,0,0-2.359,0,.719.719,0,0,0,0,1.362,2.638,2.638,0,0,0,2,.154l51.1,29.5h31.595l45.708,26.39.627-.362L311.2,296.739H279.6ZM364.2,308.331c-.36.368-.276.841.266,1.154a2.611,2.611,0,0,0,2.359,0,.719.719,0,0,0,0-1.363,2.642,2.642,0,0,0-2-.154l-26.941-15.554v-6.207l23.953,13.829.628-.362-25.469-14.7v7.656Zm41.4-15.683-37.882-21.871-.628.362,37.882,21.871c-.36.368-.275.841.266,1.154a2.612,2.612,0,0,0,2.36,0,.719.719,0,0,0,0-1.362A2.643,2.643,0,0,0,405.591,292.648ZM286.072,231.632a.719.719,0,0,0,0,1.362,2.64,2.64,0,0,0,2,.154l50.835,29.35V280.74l45.968,26.54.628-.362-45.708-26.389V262.286l-51.1-29.5c.36-.367.276-.84-.266-1.153A2.608,2.608,0,0,0,286.072,231.632Zm91.23,65.022c-.36.368-.276.841.266,1.154a2.611,2.611,0,0,0,2.359,0,.719.719,0,0,0,0-1.363,2.644,2.644,0,0,0-2-.154L347.166,278.53V267.267l53.506,30.892.627-.362L346.278,266.03v12.713Zm28.717-10.417-27.766-16.03-.627.363,27.765,16.03c-.361.367-.276.841.266,1.154a2.611,2.611,0,0,0,2.359,0,.719.719,0,0,0,0-1.362A2.64,2.64,0,0,0,406.02,286.238ZM395.48,301.156l.627-.362-43.276-24.986-.627.362Zm45.632-123.894.627.363,16.492-9.522-.628-.362Zm-97.119-64.709-25.468,14.7h13.261l27.2-15.7a2.643,2.643,0,0,0,2-.154.72.72,0,0,0,0-1.363,2.612,2.612,0,0,0-2.36,0c-.542.313-.626.787-.266,1.154l-26.941,15.554h-10.75l23.953-13.829ZM385.76,247.875H366.893l-54.908-31.7-.627.362,55.167,31.851H387.9l-65.856-38.022-.628.362ZM352.832,147.084,396.109,122.1l-.628-.362L352.2,146.721Zm-13.926,13.309L288.07,189.744a2.639,2.639,0,0,0-2,.154.719.719,0,0,0,0,1.362,2.608,2.608,0,0,0,2.36,0c.542-.313.626-.786.266-1.154l51.1-29.5V142.365l45.708-26.39-.627-.362-45.969,26.54Zm-59.672-34.752-51.1,29.5a2.641,2.641,0,0,0-2,.154.719.719,0,0,0,0,1.363,2.611,2.611,0,0,0,2.359,0c.542-.313.626-.786.266-1.154L279.6,126.153H311.2l45.969-26.54-.627-.362-45.709,26.39Zm44.113-38.027a.719.719,0,0,0,0-1.362,2.608,2.608,0,0,0-2.36,0c-.542.313-.626.786-.266,1.154l-27.766,16.03.627.363,27.766-16.031A2.639,2.639,0,0,0,323.347,87.615ZM287.585,99.879v13.315l-55.376,31.971a2.639,2.639,0,0,0-2,.154.719.719,0,0,0,0,1.362,2.607,2.607,0,0,0,2.359,0c.542-.313.627-.786.266-1.153l55.636-32.121V100.092l34.76-20.069-.627-.362Zm59.582,44.482L377.931,126.6a2.639,2.639,0,0,0,2-.154.719.719,0,0,0,0-1.362,2.608,2.608,0,0,0-2.36,0c-.542.313-.626.786-.266,1.154l-31.025,17.912v12.713L401.3,125.095l-.628-.362-53.506,30.892Zm-52.6-34.475,37.882-21.871a2.639,2.639,0,0,0,2-.154.719.719,0,0,0,0-1.362,2.608,2.608,0,0,0-2.36,0c-.542.313-.626.786-.266,1.153l-37.882,21.871ZM307.738,121.9l31.025-17.912a2.64,2.64,0,0,0,2-.154.719.719,0,0,0,0-1.362,2.608,2.608,0,0,0-2.36,0c-.542.313-.626.786-.266,1.153L307.37,121.385H287.861l53.506-30.892-.627-.362L285.719,121.9Zm-4.455-3.422L346.559,93.49l-.627-.362-43.276,24.986Zm59.182,4.741-.627-.362-23.953,13.829v-6.207l26.941-15.554a2.643,2.643,0,0,0,2-.154.719.719,0,0,0,0-1.362,2.608,2.608,0,0,0-2.36,0c-.542.313-.626.786-.266,1.154l-27.2,15.7v7.656Zm-14.38,79.266L370.579,189.5v15.556l20.93,12.083,35.253-20.354-46.245-26.7-57.96,33.463,121.065,69.9.627-.362L323.812,203.545l56.7-32.738,44.99,25.975-34,19.629L371.465,204.84V188.259l-24.637,14.224,110.162,63.6,93.794-54.152-.627-.362-93.166,53.789Zm43.451,8.973L416,197.328l-14.877-8.59-24.471,14.129Zm-13.622-8.589,23.215-13.4,13.622,7.865-23.215,13.4ZM380,176.542l-3.726,2.151,6.048,3.492v14.32l12.852-7.42-6.514-3.761-.627.362,5.886,3.4-10.709,6.183V181.973l-5.68-3.28L380,177.267l17.33,10.006.628-.362Zm-2.594,8.17v13.411h.888V184.5l-6.038-3.486-37.629,21.724,108.61,62.706.628-.362L335.884,202.739l36.374-21Zm79.2,75.434,89.157-51.475-13-7.5-89.157,51.475Zm-11.743-7.5,87.9-50.75,11.742,6.779-87.9,50.75ZM402.253,133.171a.719.719,0,0,0,0-1.362,2.612,2.612,0,0,0-2.36,0c-.542.313-.626.786-.266,1.154l-32.545,18.79.628.362,32.545-18.79A2.642,2.642,0,0,0,402.253,133.171Zm-24,19.513,35.415-20.446-.628-.363-35.415,20.447Zm-17.269,2.589-55.636,32.121a2.642,2.642,0,0,0-2,.154.719.719,0,0,0,0,1.362,2.608,2.608,0,0,0,2.36,0c.542-.313.626-.786.266-1.153l55.376-31.971h23.062l35.021-20.218-.627-.362-34.761,20.069Zm132.191,56.02,17.536-10.124-14.4-8.316-17.536,10.124Zm-13.149-8.316,16.281-9.4,13.148,7.591-16.28,9.4Zm11.105,19.869,39.589-22.857L498.351,181.3l-39.589,22.857Zm-31.116-18.689,38.334-22.132,31.116,17.964L491.133,222.12Zm32.228,12.4,27.586-15.927-22.592-13.044-27.586,15.927Zm-21.338-13.044,26.331-15.2,21.338,12.319-26.331,15.2ZM199.531,281.1l-.627.363,54.908,31.7v10.893L189.47,286.908l-.627.362L254.7,325.293V312.951ZM76.641,233.983c-.542.313-.626.786-.266,1.154L21,267.108H-2.062l-35.021,20.219.627.363,34.761-20.069h23.06L77,235.5a2.644,2.644,0,0,0,2-.154.719.719,0,0,0,0-1.363A2.611,2.611,0,0,0,76.641,233.983Zm-150.288,3.949,9.355,5.4-19.472,11.242,9.118,5.265,24.968-14.415-12.066-6.966v-15.6h-.888V238.67l11.7,6.754-23.713,13.69-7.863-4.54,19.471-11.242-10.611-6.127-25.076,14.533.629.362ZM-18.32,298.16l53.506-30.892v11.264L4.421,296.293a2.645,2.645,0,0,0-2,.154.72.72,0,0,0,0,1.363,2.612,2.612,0,0,0,2.36,0c.542-.313.626-.787.266-1.154l31.025-17.912V266.03L-18.948,297.8Zm-79.734-50.788.627.362,30.035-17.34v-7.461L-103.888,244l.628.362,34.981-20.2v6.011Zm84.925,53.784,43.276-24.986-.627-.362-43.277,24.986ZM-19.9,289.721a.719.719,0,0,0,0,1.362,2.608,2.608,0,0,0,2.36,0c.542-.313.626-.786.266-1.153l32.545-18.79-.628-.362L-17.9,289.568A2.642,2.642,0,0,0-19.9,289.721Zm-39.253-43.784-.627-.362L-76.272,255.1l.628.362Zm1.033-21.09v11.341L-41,246.074l-33.768,19.5.628.362,34.4-19.858-17.489-10.1v-9.892l33.83,19.532-37.625,21.723.627.362,38.253-22.085ZM-101.841,199.6l44.625-25.764,80.25,46.332.628-.362-80.878-46.695L-103.1,199.6l34.691,20.029-42.962,24.8.627.362,43.591-25.167ZM-3.506,257.15l-13.335-7.7-42.922,24.781.628.362,42.294-24.419,11.192,6.462h-13.5l-35.545,20.522.627.362,35.285-20.371Zm-68.587-15.022-21.638,12.493.627.363,21.638-12.493Zm18.677-8.857L-32.585,245.3-65.9,264.529l.627.362L-31.33,245.3l-21.458-12.389ZM133.01,274a2.642,2.642,0,0,0,2-.154.719.719,0,0,0,0-1.363,2.609,2.609,0,0,0-2.359,0c-.542.312-.627.786-.266,1.153L98.33,293.3H67.879l55.149-31.84-.628-.362L65.735,293.809H98.7ZM23.727,312.856c.542-.313.626-.786.266-1.153l26.941-15.555H61.685L37.73,309.977l.628.363,25.469-14.7H50.566l-27.2,15.7a2.639,2.639,0,0,0-2,.154.719.719,0,0,0,0,1.362A2.608,2.608,0,0,0,23.727,312.856Zm-54.417-21.838L4.725,270.571l-.627-.363-35.414,20.447Zm186.9-23.421a.719.719,0,0,0,0-1.362,2.607,2.607,0,0,0-2.359,0c-.542.313-.626.786-.266,1.153L102.75,296.739H71.156l-45.969,26.54.628.362,45.708-26.39h31.593l51.1-29.5A2.639,2.639,0,0,0,156.212,267.6ZM17.528,307.969a2.642,2.642,0,0,0-2,.154.719.719,0,0,0,0,1.363,2.611,2.611,0,0,0,2.359,0c.542-.313.627-.787.266-1.154l27.2-15.7v-7.656l-25.469,14.7.627.362,23.954-13.83v6.207Zm123.206-49.308c-.542.313-.626.786-.266,1.154l-48.145,27.8a2.642,2.642,0,0,0-2,.154.719.719,0,0,0,0,1.362,2.607,2.607,0,0,0,2.359,0c.542-.312.627-.786.266-1.153l48.145-27.8a2.638,2.638,0,0,0,2-.154.719.719,0,0,0,0-1.362A2.608,2.608,0,0,0,140.734,258.661ZM56.629,268.31a.719.719,0,0,0,0,1.362,2.607,2.607,0,0,0,2.359,0c.542-.313.626-.786.266-1.153l48.145-27.8a2.642,2.642,0,0,0,2-.154.719.719,0,0,0,0-1.362,2.608,2.608,0,0,0-2.36,0c-.542.312-.626.786-.266,1.153l-48.144,27.8A2.639,2.639,0,0,0,56.629,268.31ZM93.92,231.632c-.542.313-.626.787-.266,1.154l-51.1,29.5v18.241l-45.708,26.39.627.362,45.969-26.54V262.5l50.836-29.35a2.643,2.643,0,0,0,2-.154.719.719,0,0,0,0-1.363A2.611,2.611,0,0,0,93.92,231.632ZM83.1,243.874c-.542.313-.626.787-.266,1.154L48.52,264.839v19.031l56.664-32.715-.627-.363L49.407,282.632V265.051l34.052-19.66a2.643,2.643,0,0,0,2-.154.72.72,0,0,0,0-1.363A2.612,2.612,0,0,0,83.1,243.874Zm45.752,6.564L60.188,290.08a2.645,2.645,0,0,0-2,.154.72.72,0,0,0,0,1.363,2.612,2.612,0,0,0,2.36,0c.542-.313.626-.787.266-1.154L129.478,250.8Zm-5.837-3.371L54.35,286.71a2.639,2.639,0,0,0-2,.154.719.719,0,0,0,0,1.362,2.608,2.608,0,0,0,2.36,0c.542-.313.626-.786.266-1.154l68.663-39.642ZM77,187.394,21.367,155.273H-1.693L-36.454,135.2l-.628.362,35.021,20.22H21l55.375,31.972c-.36.367-.275.84.266,1.153a2.608,2.608,0,0,0,2.36,0,.719.719,0,0,0,0-1.362A2.639,2.639,0,0,0,77,187.394ZM-51.444,143.858l-.627.362,41.667,24.056H17.311l75.9,43.823L9.6,260.375H-13.124l-35.321,20.392.628.362,35.061-20.242H9.968L94.47,212.1,17.679,167.764H-10.037ZM105.612,329.227,70.551,349.469l.627.362,35.32-20.392v-13.12l83.615-48.275,75.9,43.823v16l41.667,24.056.628-.362L266.9,327.657v-16l-76.791-44.335-84.5,48.787ZM94.767,309.7l55.375-31.971a2.643,2.643,0,0,0,2-.154.72.72,0,0,0,0-1.363,2.612,2.612,0,0,0-2.36,0c-.542.313-.626.786-.266,1.154L93.879,309.486V322.8l-34.76,20.069.627.362,35.021-20.219Zm70.549,38.03,35.253-20.354-20.93-12.083H152.7L175.19,302.3,284.1,365.181l-93.166,53.79.628.362,93.793-54.152-110.162-63.6L150.554,315.8h28.718l20.042,11.571-34,19.629-44.99-25.975,56.7-32.738,120.437,69.534.628-.362-121.065-69.9L119.07,321.028Zm22.927-72.154-73.612,42.5.628.363,73.611-42.5Zm41.967.636a.719.719,0,0,0,0,1.362,2.641,2.641,0,0,0,2,.154L287.584,309.7v13.314l35.02,20.219.627-.362L288.472,322.8V309.485l-55.635-32.121c.361-.368.276-.841-.266-1.154A2.607,2.607,0,0,0,230.21,276.21ZM328.369,339.9l.628-.363-35.415-20.447-.627.362ZM-25.238,128.728a.719.719,0,0,0,0,1.362,2.638,2.638,0,0,0,2,.154l37.882,21.871.628-.362-37.882-21.871c.361-.368.276-.841-.266-1.154A2.607,2.607,0,0,0-25.238,128.728ZM96.28,191.26a.719.719,0,0,0,0-1.362,2.642,2.642,0,0,0-2-.154l-50.836-29.35V142.153l-45.969-26.54-.628.362,45.709,26.39v18.241l51.1,29.5c-.36.368-.275.841.266,1.154A2.612,2.612,0,0,0,96.28,191.26Zm69.981,150.258,24.471-14.129L175.854,318.8l-24.471,14.128Zm-13.622-8.59,23.216-13.4,13.622,7.865-23.216,13.4Zm174.474-1.134-32.544-18.79-.627.362,32.544,18.79c-.36.368-.276.841.266,1.154a2.611,2.611,0,0,0,2.359,0,.719.719,0,0,0,0-1.363A2.644,2.644,0,0,0,327.113,331.795Zm-437.4-125.153-27.587,15.927,22.592,13.044,27.587-15.927Zm21.338,13.044-26.332,15.2-21.338-12.319,26.332-15.2ZM176.043,377.757l-17.536,10.124,14.4,8.316,17.536-10.124Zm13.149,8.316-16.28,9.4-13.149-7.591,16.28-9.4ZM-109.174,200.354l-39.589,22.857,32.371,18.689L-76.8,219.043Zm31.116,18.689-38.334,22.132-31.116-17.964,38.334-22.132Zm2.463-50.658-78.971,45.594,4.712,2.721,78.971-45.594Zm3.458,2.721-77.716,44.869-3.457-2,77.716-44.87Zm-2.507-8.053L-163.8,214.528l13,7.5,89.156-51.475Zm11.742,7.5-87.9,50.75-11.742-6.779,87.9-50.749Zm-48.314,41.35-17.536,10.124,14.4,8.316,17.536-10.125Zm13.149,8.316-16.28,9.4-13.149-7.591,16.28-9.4Zm228.326,100.51L148.216,331.1l.627-.362-17.33-10.005,2.472-1.428,5.681,3.28h23.027l-10.709,6.183-5.886-3.4-.628.362,6.514,3.761,12.852-7.42h-24.8l-6.048-3.492Zm13.783-.986h23.6v-.512h-23.23l-5.151-2.974,36.374-21L283.616,357.6l.627-.362-108.61-62.706L138,316.26Zm118.025,37.708-89.156,51.474,13,7.5,89.157-51.474Zm11.743,7.5-87.9,50.749-11.742-6.779,87.9-50.75ZM178.086,366.2,138.5,389.06l32.371,18.689,39.589-22.857ZM209.2,384.893l-38.334,22.132L139.753,389.06l38.334-22.132Zm-32.227-12.4-27.588,15.927,22.592,13.044,27.588-15.927Zm21.337,13.044-26.332,15.2-21.337-12.319,26.332-15.2Zm62.8-22.749-78.971,45.593,4.713,2.721,78.971-45.594Zm3.458,2.721-77.716,44.869-3.458-2,77.715-44.869Z" transform="translate(57.557 -1.318)" fill="url(#radial-gradient-2)" style="mix-blend-mode: color-dodge;isolation: isolate" />
                <g id="Group_55" data-name="Group 55" transform="translate(53.769 40.133)">
                    <circle id="Ellipse_9" data-name="Ellipse 9" cx="87.195" cy="87.195" r="87.195" transform="translate(0 123.312) rotate(-45)" fill="url(#radial-gradient-3)" style="mix-blend-mode: color-dodge;isolation: isolate" />
                    <circle id="Ellipse_10" data-name="Ellipse 10" cx="87.195" cy="87.195" r="87.195" transform="translate(130.303 207.449) rotate(-45)" fill="url(#radial-gradient-4)" style="mix-blend-mode: color-dodge;isolation: isolate" />
                </g>
                <ellipse id="Ellipse_11" data-name="Ellipse 11" cx="117.747" cy="67.981" rx="117.747" ry="67.981" transform="translate(121.453 215.672)" fill="url(#radial-gradient-5)" style="mix-blend-mode: multiply;isolation: isolate" />
                <g id="Group_58" data-name="Group 58" transform="translate(72.074 236.75)">
                    <g id="Group_56" data-name="Group 56" transform="translate(234.358 0.165)">
                        <path id="Path_51" data-name="Path 51" d="M527.56,449.1c4.609-2.661-5.422-12.766-22.4-22.571s-34.485-15.6-39.093-12.935,5.422,12.766,22.4,22.571S522.952,451.756,527.56,449.1Z" transform="translate(-464.943 -377.697)" fill="url(#radial-gradient-6)" style="mix-blend-mode: color-dodge;isolation: isolate" />
                        <ellipse id="Ellipse_12" data-name="Ellipse 12" cx="8.264" cy="35.85" rx="8.264" ry="35.85" transform="translate(18.263 26.845) rotate(-61.894)" fill="url(#radial-gradient-7)" style="mix-blend-mode: color-dodge;isolation: isolate" />
                        <ellipse id="Ellipse_13" data-name="Ellipse 13" cx="8.264" cy="35.85" rx="8.264" ry="35.85" transform="matrix(0.471, -0.882, 0.882, 0.471, 45.209, 14.58)" fill="url(#radial-gradient-8)" style="mix-blend-mode: color-dodge;isolation: isolate" />
                    </g>
                    <g id="Group_57" data-name="Group 57" transform="translate(0 0)">
                        <ellipse id="Ellipse_14" data-name="Ellipse 14" cx="35.85" cy="8.264" rx="35.85" ry="8.264" transform="translate(0 35.07) rotate(-29.283)" fill="url(#radial-gradient-9)" style="mix-blend-mode: color-dodge;isolation: isolate" />
                        <ellipse id="Ellipse_15" data-name="Ellipse 15" cx="35.85" cy="8.264" rx="35.85" ry="8.264" transform="translate(28.509 48.187) rotate(-29.283)" fill="url(#radial-gradient-10)" style="mix-blend-mode: color-dodge;isolation: isolate" />
                        <ellipse id="Ellipse_16" data-name="Ellipse 16" cx="35.85" cy="8.264" rx="35.85" ry="8.264" transform="translate(49.612 63.835) rotate(-29.283)" fill="url(#radial-gradient-11)" style="mix-blend-mode: color-dodge;isolation: isolate" />
                    </g>
                </g>
                <g id="Group_65" data-name="Group 65" transform="translate(95.982 86.319)">
                    <g id="Group_59" data-name="Group 59" transform="translate(47.015 77.126)">
                        <path id="Path_52" data-name="Path 52" d="M483.4,306.64l-.111,39,26.8-58.649.111-39Z" transform="translate(-307.762 -247.992)" fill="url(#linear-gradient)" />
                        <path id="Path_53" data-name="Path 53" d="M329.908,352.692l-.111,39L430.96,375.978l.111-39Z" transform="translate(-255.433 -278.329)" fill="url(#linear-gradient-2)" />
                        <path id="Path_54" data-name="Path 54" d="M217.076,295.677l-.111,39,74.365,42.935.111-39Z" transform="translate(-216.966 -264.249)" fill="url(#linear-gradient-3)" />
                    </g>
                    <g id="Group_60" data-name="Group 60" transform="translate(0 0)">
                        <path id="Path_55" data-name="Path 55" d="M392.661,284.431l26.8-58.649-74.365-42.934L243.932,198.562l-26.8,58.649L291.5,300.145Z" transform="translate(-170.008 -148.656)" fill="url(#linear-gradient-4)" />
                        <path id="Path_56" data-name="Path 56" d="M222.175,257.541l25.245-55.25L346.31,186.93l71.544,41.306L392.61,283.485l-98.89,15.361Z" transform="translate(-171.727 -150.048)" fill="url(#linear-gradient-5)" />
                        <path id="Path_57" data-name="Path 57" d="M247.42,212.044l98.891-15.361,68.018,39.271,3.526-7.718L346.31,186.93,247.42,202.291l-25.245,55.25,3.526,2.036Z" transform="translate(-171.727 -150.048)" fill="url(#linear-gradient-6)" />
                        <ellipse id="Ellipse_17" data-name="Ellipse 17" cx="13.469" cy="94.508" rx="13.469" ry="94.508" transform="translate(124.444 23.66) rotate(-61.44)" fill="url(#radial-gradient-12)" style="mix-blend-mode: color-dodge;isolation: isolate" />
                        <ellipse id="Ellipse_18" data-name="Ellipse 18" cx="13.469" cy="94.508" rx="13.469" ry="94.508" transform="translate(0 98.64) rotate(-61.44)" fill="url(#radial-gradient-13)" style="mix-blend-mode: color-dodge;isolation: isolate" />
                    </g>
                    <g id="Group_64" data-name="Group 64" transform="translate(67.024 53.511)">
                        <g id="Group_61" data-name="Group 61">
                            <g transform="matrix(1, 0, 0, 1, -163.01, -139.83)" filter="url(#Path_58)">
                                <path id="Path_58-2" data-name="Path 58" d="M407.569,244.789l-16.817,36.8-.146.318-18.194,2.83-15.14,2.348-48.87,7.6-4.568.705-7-4.043L271.7,276.833l-24.37-14.065,16.964-37.127,7.407-1.153,25.136-3.905,11.57-1.8,42.659-6.624,6.211,3.587,15.14,8.74,18.34,10.589Z" transform="translate(-84.32 -72.33)" fill="url(#linear-gradient-7)" />
                            </g>
                            <path id="Path_59" data-name="Path 59" d="M321.008,218.785v75.9l48.87-7.6V215.748l-6.211-3.587ZM284.3,276.833l25.136,14.512V220.583L284.3,224.488Zm100.716-52.345v60.251l18.194-2.83.146-.318V235.077Z" transform="translate(-259.932 -212.161)" fill="url(#linear-gradient-8)" />
                        </g>
                        <g id="Group_63" data-name="Group 63" transform="translate(25.8 1.865)">
                            <g id="Group_62" data-name="Group 62">
                                <path id="Path_60" data-name="Path 60" d="M318.781,268.645,294.528,267.4l-8.057,4.651,29.07,16.784,9.552-5.514-13.207-7.625,24.253,1.247,8.057-4.652-29.07-16.783-9.552,5.514Zm25.833-30.165,7.6,4.388,8.513-4.915,21.471,12.4,9.8-5.658-21.471-12.4,8.514-4.915-7.6-4.388Zm4.318,31.075,9.8-5.658-9.3-5.371,12.127-7-7.393-4.268-12.126,7-4.983-2.878,13.829-7.984-7.392-4.268-23.63,13.643Z" transform="translate(-286.471 -217.718)" fill="url(#linear-gradient-9)" />
                                <path id="Path_61" data-name="Path 61" d="M318.781,268.544,294.528,267.3l-8.057,4.651,29.07,16.784,9.552-5.514-13.207-7.625,24.253,1.247,8.057-4.652-29.07-16.783-9.552,5.514Zm25.833-30.165,7.6,4.388,8.513-4.915,21.471,12.4,9.8-5.658-21.471-12.4,8.514-4.915-7.6-4.388Zm4.318,31.075,9.8-5.658-9.3-5.371,12.127-7-7.393-4.268-12.126,7-4.983-2.878,13.829-7.984-7.392-4.268-23.63,13.643Z" transform="translate(-286.471 -217.684)" fill="url(#linear-gradient-9)" />
                                <path id="Path_62" data-name="Path 62" d="M318.781,268.444,294.528,267.2l-8.057,4.651,29.07,16.784,9.552-5.514-13.207-7.625,24.253,1.247,8.057-4.652L315.126,255.3l-9.552,5.515Zm25.833-30.165,7.6,4.388,8.513-4.915,21.471,12.4,9.8-5.658-21.471-12.4,8.514-4.915-7.6-4.388Zm4.318,31.075,9.8-5.659-9.3-5.37,12.127-7-7.393-4.268-12.126,7-4.983-2.878,13.829-7.984-7.392-4.268-23.63,13.643Z" transform="translate(-286.471 -217.65)" fill="url(#linear-gradient-9)" />
                                <path id="Path_63" data-name="Path 63" d="M318.781,268.344,294.528,267.1l-8.057,4.651,29.07,16.784,9.552-5.514-13.207-7.625,24.253,1.247,8.057-4.652-29.07-16.783-9.552,5.514Zm25.833-30.165,7.6,4.388,8.513-4.915,21.471,12.4,9.8-5.658-21.471-12.4,8.514-4.915-7.6-4.388Zm4.318,31.075,9.8-5.658-9.3-5.371,12.127-7-7.393-4.268-12.126,7-4.983-2.878,13.829-7.984-7.392-4.268-23.63,13.643Z" transform="translate(-286.471 -217.616)" fill="url(#linear-gradient-9)" />
                                <path id="Path_64" data-name="Path 64" d="M318.781,268.244,294.528,267l-8.057,4.651,29.07,16.784,9.552-5.514-13.207-7.625,24.253,1.247,8.057-4.652-29.07-16.783-9.552,5.514Zm25.833-30.165,7.6,4.388,8.513-4.915,21.471,12.4,9.8-5.658-21.471-12.4,8.514-4.915-7.6-4.388Zm4.318,31.075,9.8-5.658-9.3-5.371,12.127-7-7.393-4.268-12.126,7-4.983-2.878L350.884,243l-7.392-4.268-23.63,13.643Z" transform="translate(-286.471 -217.582)" fill="url(#linear-gradient-9)" />
                                <path id="Path_65" data-name="Path 65" d="M318.781,268.144,294.528,266.9l-8.057,4.651,29.07,16.784,9.552-5.514-13.207-7.625,24.253,1.247,8.057-4.652-29.07-16.783-9.552,5.514Zm25.833-30.165,7.6,4.388,8.513-4.915,21.471,12.4,9.8-5.658-21.471-12.4,8.514-4.915-7.6-4.388Zm4.318,31.075,9.8-5.658-9.3-5.371,12.127-7-7.393-4.268-12.126,7-4.983-2.878,13.829-7.984-7.392-4.268-23.63,13.643Z" transform="translate(-286.471 -217.548)" fill="url(#linear-gradient-9)" />
                                <path id="Path_66" data-name="Path 66" d="M318.781,268.044,294.528,266.8l-8.057,4.651,29.07,16.784,9.552-5.514-13.207-7.625,24.253,1.247,8.057-4.652-29.07-16.783-9.552,5.514Zm25.833-30.165,7.6,4.388,8.513-4.915,21.471,12.4,9.8-5.658-21.471-12.4,8.514-4.915-7.6-4.388Zm4.318,31.075,9.8-5.658-9.3-5.371,12.127-7-7.393-4.268-12.126,7-4.983-2.878,13.829-7.984-7.392-4.268-23.63,13.643Z" transform="translate(-286.471 -217.514)" fill="url(#linear-gradient-9)" />
                                <path id="Path_67" data-name="Path 67" d="M318.781,267.944,294.528,266.7l-8.057,4.651,29.07,16.784,9.552-5.514-13.207-7.625,24.253,1.247,8.057-4.652L315.126,254.8l-9.552,5.515Zm25.833-30.165,7.6,4.388,8.513-4.915,21.471,12.4,9.8-5.658-21.471-12.4,8.514-4.915-7.6-4.388Zm4.318,31.075,9.8-5.659-9.3-5.37,12.127-7-7.393-4.268-12.126,7-4.983-2.878,13.829-7.984-7.392-4.268-23.63,13.643Z" transform="translate(-286.471 -217.48)" fill="url(#linear-gradient-9)" />
                                <path id="Path_68" data-name="Path 68" d="M318.781,267.844,294.528,266.6l-8.057,4.651,29.07,16.784,9.552-5.514-13.207-7.625,24.253,1.247,8.057-4.652-29.07-16.783-9.552,5.514Zm25.833-30.165,7.6,4.388,8.513-4.915,21.471,12.4,9.8-5.658-21.471-12.4,8.514-4.915-7.6-4.388Zm4.318,31.075,9.8-5.658-9.3-5.371,12.127-7-7.393-4.268-12.126,7-4.983-2.878,13.829-7.984-7.392-4.268-23.63,13.643Z" transform="translate(-286.471 -217.446)" fill="url(#linear-gradient-9)" />
                                <path id="Path_69" data-name="Path 69" d="M318.781,267.744,294.528,266.5l-8.057,4.651,29.07,16.784,9.552-5.514-13.207-7.625,24.253,1.247,8.057-4.652-29.07-16.783-9.552,5.514Zm25.833-30.165,7.6,4.388,8.513-4.915,21.471,12.4,9.8-5.658-21.471-12.4,8.514-4.915-7.6-4.388Zm4.318,31.075,9.8-5.658-9.3-5.371,12.127-7-7.393-4.268-12.126,7-4.983-2.878,13.829-7.984-7.392-4.268-23.63,13.643Z" transform="translate(-286.471 -217.412)" fill="url(#linear-gradient-9)" />
                                <path id="Path_70" data-name="Path 70" d="M318.781,267.644,294.528,266.4l-8.057,4.651,29.07,16.784,9.552-5.514-13.207-7.625,24.253,1.247,8.057-4.652-29.07-16.783-9.552,5.514Zm25.833-30.165,7.6,4.388,8.513-4.915,21.471,12.4,9.8-5.658-21.471-12.4,8.514-4.915-7.6-4.388Zm4.318,31.075,9.8-5.658-9.3-5.371,12.127-7-7.393-4.267-12.126,7-4.983-2.878,13.829-7.984-7.392-4.268-23.63,13.643Z" transform="translate(-286.471 -217.377)" fill="url(#linear-gradient-9)" />
                                <path id="Path_71" data-name="Path 71" d="M318.781,267.544,294.528,266.3l-8.057,4.651,29.07,16.784,9.552-5.515-13.207-7.625,24.253,1.247,8.057-4.652-29.07-16.783-9.552,5.514Zm25.833-30.165,7.6,4.388,8.513-4.915,21.471,12.4,9.8-5.658-21.471-12.4,8.514-4.915-7.6-4.388Zm4.318,31.075,9.8-5.658-9.3-5.371,12.127-7-7.393-4.268-12.126,7-4.983-2.878,13.829-7.984-7.392-4.268-23.63,13.643Z" transform="translate(-286.471 -217.343)" fill="url(#linear-gradient-9)" />
                                <path id="Path_72" data-name="Path 72" d="M318.781,267.444,294.528,266.2l-8.057,4.651,29.07,16.784,9.552-5.514-13.207-7.625,24.253,1.247,8.057-4.652L315.126,254.3l-9.552,5.515Zm25.833-30.165,7.6,4.388,8.513-4.915,21.471,12.4,9.8-5.658-21.471-12.4,8.514-4.915-7.6-4.388Zm4.318,31.075,9.8-5.659-9.3-5.37,12.127-7-7.393-4.268-12.126,7-4.983-2.878,13.829-7.984-7.392-4.268-23.63,13.643Z" transform="translate(-286.471 -217.309)" fill="url(#linear-gradient-9)" />
                                <path id="Path_73" data-name="Path 73" d="M318.781,267.344,294.528,266.1l-8.057,4.651,29.07,16.784,9.552-5.515-13.207-7.625,24.253,1.247,8.057-4.652-29.07-16.783-9.552,5.514Zm25.833-30.165,7.6,4.388,8.513-4.915,21.471,12.4,9.8-5.658-21.471-12.4,8.514-4.915-7.6-4.388Zm4.318,31.075,9.8-5.658-9.3-5.371,12.127-7-7.393-4.268-12.126,7-4.983-2.878,13.829-7.984-7.392-4.268-23.63,13.643Z" transform="translate(-286.471 -217.275)" fill="url(#linear-gradient-9)" />
                                <path id="Path_74" data-name="Path 74" d="M318.781,267.244,294.528,266l-8.057,4.651,29.07,16.784,9.552-5.514-13.207-7.625,24.253,1.247,8.057-4.652-29.07-16.783-9.552,5.514Zm25.833-30.165,7.6,4.388,8.513-4.915,21.471,12.4,9.8-5.658-21.471-12.4,8.514-4.915-7.6-4.388Zm4.318,31.075,9.8-5.658-9.3-5.371,12.127-7-7.393-4.268-12.126,7-4.983-2.878L350.884,242l-7.392-4.268-23.63,13.643Z" transform="translate(-286.471 -217.241)" fill="url(#linear-gradient-9)" />
                                <path id="Path_75" data-name="Path 75" d="M318.781,267.145,294.528,265.9l-8.057,4.651,29.07,16.784,9.552-5.514-13.207-7.625,24.253,1.247,8.057-4.652-29.07-16.783-9.552,5.515Zm25.833-30.165,7.6,4.388,8.513-4.915,21.471,12.4,9.8-5.658-21.471-12.4,8.514-4.915-7.6-4.388Zm4.318,31.075,9.8-5.658-9.3-5.371,12.127-7-7.393-4.267-12.126,7-4.983-2.878,13.829-7.984-7.392-4.268-23.63,13.643Z" transform="translate(-286.471 -217.207)" fill="url(#linear-gradient-9)" />
                                <path id="Path_76" data-name="Path 76" d="M318.781,267.044,294.528,265.8l-8.057,4.651,29.07,16.784,9.552-5.514-13.207-7.625,24.253,1.247,8.057-4.652-29.07-16.783-9.552,5.514Zm25.833-30.165,7.6,4.388,8.513-4.915,21.471,12.4,9.8-5.658-21.471-12.4,8.514-4.915-7.6-4.388Zm4.318,31.075,9.8-5.658-9.3-5.371,12.127-7-7.393-4.268-12.126,7-4.983-2.878,13.829-7.984-7.392-4.268-23.63,13.643Z" transform="translate(-286.471 -217.173)" fill="url(#linear-gradient-9)" />
                                <path id="Path_77" data-name="Path 77" d="M318.781,266.944,294.528,265.7l-8.057,4.651,29.07,16.784,9.552-5.514-13.207-7.625,24.253,1.247,8.057-4.652L315.126,253.8l-9.552,5.515Zm25.833-30.165,7.6,4.388,8.513-4.915,21.471,12.4,9.8-5.658-21.471-12.4,8.514-4.915-7.6-4.388Zm4.318,31.075,9.8-5.659-9.3-5.37,12.127-7-7.393-4.268-12.126,7-4.983-2.878,13.829-7.984-7.392-4.268-23.63,13.643Z" transform="translate(-286.471 -217.139)" fill="url(#linear-gradient-9)" />
                                <path id="Path_78" data-name="Path 78" d="M318.781,266.844,294.528,265.6l-8.057,4.651,29.07,16.784,9.552-5.514-13.207-7.625,24.253,1.247,8.057-4.652-29.07-16.783-9.552,5.514Zm25.833-30.165,7.6,4.388,8.513-4.915,21.471,12.4,9.8-5.658-21.471-12.4,8.514-4.915-7.6-4.388Zm4.318,31.075,9.8-5.658-9.3-5.371,12.127-7-7.393-4.268-12.126,7-4.983-2.878,13.829-7.984-7.392-4.268-23.63,13.643Z" transform="translate(-286.471 -217.105)" fill="url(#linear-gradient-9)" />
                                <path id="Path_79" data-name="Path 79" d="M318.781,266.744,294.528,265.5l-8.057,4.651,29.07,16.784,9.552-5.514-13.207-7.625,24.253,1.247,8.057-4.652-29.07-16.783-9.552,5.514Zm25.833-30.165,7.6,4.388,8.513-4.915,21.471,12.4,9.8-5.658-21.471-12.4,8.514-4.915-7.6-4.388Zm4.318,31.075,9.8-5.658-9.3-5.371,12.127-7-7.393-4.268-12.126,7-4.983-2.878,13.829-7.984-7.392-4.268-23.63,13.643Z" transform="translate(-286.471 -217.071)" fill="url(#linear-gradient-9)" />
                                <path id="Path_80" data-name="Path 80" d="M318.781,266.644,294.528,265.4l-8.057,4.651,29.07,16.784,9.552-5.514-13.207-7.625,24.253,1.247,8.057-4.652-29.07-16.783-9.552,5.515Zm25.833-30.165,7.6,4.388,8.513-4.915,21.471,12.4,9.8-5.658-21.471-12.4,8.514-4.915-7.6-4.388Zm4.318,31.075,9.8-5.658-9.3-5.371,12.127-7-7.393-4.267-12.126,7-4.983-2.878,13.829-7.984-7.392-4.268-23.63,13.643Z" transform="translate(-286.471 -217.037)" fill="url(#linear-gradient-9)" />
                                <path id="Path_81" data-name="Path 81" d="M318.781,266.545,294.528,265.3l-8.057,4.651,29.07,16.784,9.552-5.514-13.207-7.625,24.253,1.247,8.057-4.652-29.07-16.783-9.552,5.514Zm25.833-30.165,7.6,4.388,8.513-4.915,21.471,12.4,9.8-5.658-21.471-12.4,8.514-4.915-7.6-4.388Zm4.318,31.075,9.8-5.658-9.3-5.371,12.127-7-7.393-4.268-12.126,7-4.983-2.878,13.829-7.984-7.392-4.268-23.63,13.643Z" transform="translate(-286.471 -217.002)" fill="url(#linear-gradient-9)" />
                                <path id="Path_82" data-name="Path 82" d="M318.781,266.444,294.528,265.2l-8.057,4.651,29.07,16.784,9.552-5.514-13.207-7.625,24.253,1.247,8.057-4.652L315.126,253.3l-9.552,5.515Zm25.833-30.165,7.6,4.388,8.513-4.915,21.471,12.4,9.8-5.658-21.471-12.4,8.514-4.915-7.6-4.388Zm4.318,31.075,9.8-5.659-9.3-5.37,12.127-7-7.393-4.268-12.126,7-4.983-2.878,13.829-7.984-7.392-4.268-23.63,13.643Z" transform="translate(-286.471 -216.968)" fill="url(#linear-gradient-9)" />
                                <path id="Path_83" data-name="Path 83" d="M318.781,266.344,294.528,265.1l-8.057,4.651,29.07,16.784,9.552-5.514-13.207-7.625,24.253,1.247,8.057-4.652-29.07-16.783-9.552,5.514Zm25.833-30.165,7.6,4.388,8.513-4.915,21.471,12.4,9.8-5.658-21.471-12.4,8.514-4.915-7.6-4.388Zm4.318,31.075,9.8-5.658-9.3-5.371,12.127-7-7.393-4.268-12.126,7-4.983-2.878,13.829-7.984-7.392-4.268-23.63,13.643Z" transform="translate(-286.471 -216.934)" fill="url(#linear-gradient-9)" />
                                <path id="Path_84" data-name="Path 84" d="M318.781,266.244,294.528,265l-8.057,4.651,29.07,16.784,9.552-5.514-13.207-7.625,24.253,1.247,8.057-4.652-29.07-16.783-9.552,5.514Zm25.833-30.165,7.6,4.388,8.513-4.915,21.471,12.4,9.8-5.658-21.471-12.4,8.514-4.915-7.6-4.388Zm4.318,31.075,9.8-5.658-9.3-5.371,12.127-7-7.393-4.268-12.126,7-4.983-2.878L350.884,241l-7.392-4.268-23.63,13.643Z" transform="translate(-286.471 -216.9)" fill="url(#linear-gradient-9)" />
                                <path id="Path_85" data-name="Path 85" d="M318.781,266.145,294.528,264.9l-8.057,4.651,29.07,16.784,9.552-5.514-13.207-7.625,24.253,1.247,8.057-4.652-29.07-16.783-9.552,5.515Zm25.833-30.165,7.6,4.388,8.513-4.915,21.471,12.4,9.8-5.658-21.471-12.4,8.514-4.915-7.6-4.388Zm4.318,31.075,9.8-5.658-9.3-5.371,12.127-7-7.393-4.267-12.126,7-4.983-2.878,13.829-7.984-7.392-4.268-23.63,13.643Z" transform="translate(-286.471 -216.866)" fill="url(#linear-gradient-9)" />
                                <path id="Path_86" data-name="Path 86" d="M318.781,266.044,294.528,264.8l-8.057,4.651,29.07,16.784,9.552-5.514-13.207-7.625,24.253,1.247,8.057-4.652-29.07-16.783-9.552,5.514Zm25.833-30.165,7.6,4.388,8.513-4.915,21.471,12.4,9.8-5.658-21.471-12.4,8.514-4.915-7.6-4.388Zm4.318,31.075,9.8-5.658-9.3-5.371,12.127-7-7.393-4.268-12.126,7-4.983-2.878,13.829-7.984-7.392-4.268-23.63,13.643Z" transform="translate(-286.471 -216.832)" fill="url(#linear-gradient-9)" />
                                <path id="Path_87" data-name="Path 87" d="M318.781,265.944,294.528,264.7l-8.057,4.651,29.07,16.784,9.552-5.514-13.207-7.625,24.253,1.247,8.057-4.652L315.126,252.8l-9.552,5.515Zm25.833-30.165,7.6,4.388,8.513-4.915,21.471,12.4,9.8-5.658-21.471-12.4,8.514-4.915-7.6-4.388Zm4.318,31.075,9.8-5.659-9.3-5.37,12.127-7-7.393-4.268-12.126,7-4.983-2.878,13.829-7.984-7.392-4.268-23.63,13.643Z" transform="translate(-286.471 -216.798)" fill="url(#linear-gradient-9)" />
                                <path id="Path_88" data-name="Path 88" d="M318.781,265.844,294.528,264.6l-8.057,4.651,29.07,16.784,9.552-5.514-13.207-7.625,24.253,1.247,8.057-4.652-29.07-16.783-9.552,5.514Zm25.833-30.165,7.6,4.388,8.513-4.915,21.471,12.4,9.8-5.658-21.471-12.4,8.514-4.915-7.6-4.388Zm4.318,31.075,9.8-5.658-9.3-5.371,12.127-7-7.393-4.268-12.126,7-4.983-2.878,13.829-7.984-7.392-4.268-23.63,13.643Z" transform="translate(-286.471 -216.764)" fill="url(#linear-gradient-9)" />
                                <path id="Path_89" data-name="Path 89" d="M318.781,265.744,294.528,264.5l-8.057,4.651,29.07,16.784,9.552-5.514-13.207-7.625,24.253,1.247,8.057-4.652-29.07-16.783-9.552,5.514Zm25.833-30.165,7.6,4.388,8.513-4.915,21.471,12.4,9.8-5.658-21.471-12.4,8.514-4.915-7.6-4.388Zm4.318,31.075,9.8-5.658-9.3-5.371,12.127-7-7.393-4.268-12.126,7-4.983-2.877,13.829-7.984-7.392-4.268-23.63,13.643Z" transform="translate(-286.471 -216.73)" fill="url(#linear-gradient-9)" />
                                <path id="Path_90" data-name="Path 90" d="M318.781,265.644,294.528,264.4l-8.057,4.651,29.07,16.784,9.552-5.514-13.207-7.625,24.253,1.247,8.057-4.652-29.07-16.783-9.552,5.514Zm25.833-30.165,7.6,4.388,8.513-4.915,21.471,12.4,9.8-5.658-21.471-12.4,8.514-4.915-7.6-4.388Zm4.318,31.075,9.8-5.658-9.3-5.371,12.127-7-7.393-4.267-12.126,7-4.983-2.877,13.829-7.984-7.392-4.268-23.63,13.643Z" transform="translate(-286.471 -216.696)" fill="url(#linear-gradient-9)" />
                                <path id="Path_91" data-name="Path 91" d="M318.781,265.544,294.528,264.3l-8.057,4.651,29.07,16.784,9.552-5.514-13.207-7.625,24.253,1.247,8.057-4.652-29.07-16.783-9.552,5.514Zm25.833-30.165,7.6,4.388,8.513-4.915,21.471,12.4,9.8-5.658-21.471-12.4,8.514-4.915-7.6-4.388Zm4.318,31.075,9.8-5.658-9.3-5.371,12.127-7-7.393-4.268-12.126,7-4.983-2.878,13.829-7.984-7.392-4.268-23.63,13.643Z" transform="translate(-286.471 -216.662)" fill="url(#linear-gradient-9)" />
                                <path id="Path_92" data-name="Path 92" d="M318.781,265.444,294.528,264.2l-8.057,4.651,29.07,16.784,9.552-5.514-13.207-7.625,24.253,1.247,8.057-4.652L315.126,252.3l-9.552,5.515Zm25.833-30.165,7.6,4.388,8.513-4.915,21.471,12.4,9.8-5.658-21.471-12.4,8.514-4.915-7.6-4.388Zm4.318,31.075,9.8-5.659-9.3-5.37,12.127-7-7.393-4.268-12.126,7-4.983-2.878,13.829-7.984-7.392-4.268-23.63,13.643Z" transform="translate(-286.471 -216.627)" fill="url(#linear-gradient-9)" />
                                <path id="Path_93" data-name="Path 93" d="M318.781,265.344,294.528,264.1l-8.057,4.651,29.07,16.784,9.552-5.514-13.207-7.625,24.253,1.247,8.057-4.652-29.07-16.783-9.552,5.514Zm25.833-30.165,7.6,4.388,8.513-4.915,21.471,12.4,9.8-5.658-21.471-12.4,8.514-4.915-7.6-4.388Zm4.318,31.075,9.8-5.658-9.3-5.371,12.127-7-7.393-4.268-12.126,7-4.983-2.877,13.829-7.984-7.392-4.268-23.63,13.643Z" transform="translate(-286.471 -216.593)" fill="url(#linear-gradient-9)" />
                                <path id="Path_94" data-name="Path 94" d="M318.781,265.244,294.528,264l-8.057,4.651,29.07,16.784,9.552-5.514-13.207-7.625,24.253,1.247,8.057-4.652-29.07-16.783-9.552,5.514Zm25.833-30.165,7.6,4.388,8.513-4.915,21.471,12.4,9.8-5.658-21.471-12.4,8.514-4.915-7.6-4.388Zm4.318,31.075,9.8-5.658-9.3-5.371,12.127-7-7.393-4.268-12.126,7-4.983-2.877L350.884,240l-7.392-4.268-23.63,13.643Z" transform="translate(-286.471 -216.559)" fill="url(#linear-gradient-9)" />
                                <path id="Path_95" data-name="Path 95" d="M318.781,265.144,294.528,263.9l-8.057,4.651,29.07,16.784,9.552-5.514-13.207-7.625,24.253,1.247,8.057-4.652-29.07-16.783-9.552,5.514Zm25.833-30.165,7.6,4.388,8.513-4.915,21.471,12.4,9.8-5.658-21.471-12.4,8.514-4.915-7.6-4.388Zm4.318,31.075,9.8-5.658-9.3-5.371,12.127-7-7.393-4.267-12.126,7-4.983-2.878,13.829-7.984-7.392-4.268-23.63,13.643Z" transform="translate(-286.471 -216.525)" fill="url(#linear-gradient-9)" />
                                <path id="Path_96" data-name="Path 96" d="M318.781,265.044,294.528,263.8l-8.057,4.651,29.07,16.784,9.552-5.514-13.207-7.625,24.253,1.247,8.057-4.652-29.07-16.783-9.552,5.514Zm25.833-30.165,7.6,4.388,8.513-4.915,21.471,12.4,9.8-5.658-21.471-12.4,8.514-4.915-7.6-4.388Zm4.318,31.075,9.8-5.658-9.3-5.371,12.127-7-7.393-4.268-12.126,7-4.983-2.878,13.829-7.984-7.392-4.268-23.63,13.643Z" transform="translate(-286.471 -216.491)" fill="url(#linear-gradient-9)" />
                                <path id="Path_97" data-name="Path 97" d="M318.781,264.944,294.528,263.7l-8.057,4.651,29.07,16.784,9.552-5.514-13.207-7.625,24.253,1.247,8.057-4.652L315.126,251.8l-9.552,5.515Zm25.833-30.165,7.6,4.388,8.513-4.915,21.471,12.4,9.8-5.658-21.471-12.4,8.514-4.915-7.6-4.388Zm4.318,31.075,9.8-5.659-9.3-5.37,12.127-7-7.393-4.268-12.126,7-4.983-2.878,13.829-7.984-7.392-4.268-23.63,13.643Z" transform="translate(-286.471 -216.457)" fill="url(#linear-gradient-9)" />
                                <path id="Path_98" data-name="Path 98" d="M318.781,264.844,294.528,263.6l-8.057,4.651,29.07,16.784,9.552-5.515-13.207-7.625,24.253,1.247,8.057-4.652-29.07-16.783-9.552,5.514Zm25.833-30.165,7.6,4.388,8.513-4.915,21.471,12.4,9.8-5.658-21.471-12.4,8.514-4.915-7.6-4.388Zm4.318,31.075,9.8-5.658-9.3-5.372,12.127-7-7.393-4.268-12.126,7-4.983-2.878,13.829-7.984-7.392-4.268-23.63,13.643Z" transform="translate(-286.471 -216.423)" fill="url(#linear-gradient-9)" />
                                <path id="Path_99" data-name="Path 99" d="M318.781,264.744,294.528,263.5l-8.057,4.651,29.07,16.784,9.552-5.514-13.207-7.625,24.253,1.247,8.057-4.652-29.07-16.783-9.552,5.514Zm25.833-30.165,7.6,4.388,8.513-4.915,21.471,12.4,9.8-5.658-21.471-12.4,8.514-4.915-7.6-4.388Zm4.318,31.075,9.8-5.658-9.3-5.371,12.127-7-7.393-4.268-12.126,7-4.983-2.878,13.829-7.984-7.392-4.268-23.63,13.643Z" transform="translate(-286.471 -216.389)" fill="url(#linear-gradient-9)" />
                                <path id="Path_100" data-name="Path 100" d="M318.781,264.645,294.528,263.4l-8.057,4.651,29.07,16.784,9.552-5.514-13.207-7.625,24.253,1.247,8.057-4.652-29.07-16.783-9.552,5.514Zm25.833-30.165,7.6,4.388,8.513-4.915,21.471,12.4,9.8-5.658-21.471-12.4,8.514-4.915-7.6-4.388Zm4.318,31.075,9.8-5.658-9.3-5.371,12.127-7-7.393-4.268-12.126,7-4.983-2.878,13.829-7.984-7.392-4.268-23.63,13.643Z" transform="translate(-286.471 -216.355)" fill="url(#linear-gradient-9)" />
                                <path id="Path_101" data-name="Path 101" d="M318.781,264.544,294.528,263.3l-8.057,4.651,29.07,16.784,9.552-5.514-13.207-7.625,24.253,1.247,8.057-4.652-29.07-16.783-9.552,5.514Zm25.833-30.165,7.6,4.388,8.513-4.915,21.471,12.4,9.8-5.658-21.471-12.4,8.514-4.915-7.6-4.388Zm4.318,31.075,9.8-5.658-9.3-5.371,12.127-7-7.393-4.268-12.126,7-4.983-2.878,13.829-7.984-7.392-4.268-23.63,13.643Z" transform="translate(-286.471 -216.321)" fill="url(#linear-gradient-9)" />
                                <path id="Path_102" data-name="Path 102" d="M318.781,264.444,294.528,263.2l-8.057,4.651,29.07,16.784,9.552-5.514-13.207-7.625,24.253,1.247,8.057-4.652L315.126,251.3l-9.552,5.515Zm25.833-30.165,7.6,4.388,8.513-4.915,21.471,12.4,9.8-5.658-21.471-12.4,8.514-4.915-7.6-4.388Zm4.318,31.075,9.8-5.659-9.3-5.37,12.127-7-7.393-4.268-12.126,7-4.983-2.878,13.829-7.984-7.392-4.268-23.63,13.643Z" transform="translate(-286.471 -216.287)" fill="url(#linear-gradient-9)" />
                                <path id="Path_103" data-name="Path 103" d="M318.781,264.344,294.528,263.1l-8.057,4.651,29.07,16.784,9.552-5.514-13.207-7.625,24.253,1.247,8.057-4.652-29.07-16.783-9.552,5.515Zm25.833-30.165,7.6,4.388,8.513-4.915,21.471,12.4,9.8-5.658-21.471-12.4,8.514-4.915-7.6-4.388Zm4.318,31.075,9.8-5.658-9.3-5.372,12.127-7-7.393-4.268-12.126,7-4.983-2.878,13.829-7.984-7.392-4.268-23.63,13.643Z" transform="translate(-286.471 -216.252)" fill="url(#linear-gradient-9)" />
                                <path id="Path_104" data-name="Path 104" d="M318.781,264.244,294.528,263l-8.057,4.651,29.07,16.784,9.552-5.514-13.207-7.625,24.253,1.247,8.057-4.652-29.07-16.783-9.552,5.514Zm25.833-30.165,7.6,4.388,8.513-4.915,21.471,12.4,9.8-5.658-21.471-12.4,8.514-4.915-7.6-4.388Zm4.318,31.075,9.8-5.658-9.3-5.371,12.127-7-7.393-4.268-12.126,7-4.983-2.878L350.884,239l-7.392-4.268-23.63,13.643Z" transform="translate(-286.471 -216.218)" fill="url(#linear-gradient-9)" />
                                <path id="Path_105" data-name="Path 105" d="M318.781,264.144,294.528,262.9l-8.057,4.651,29.07,16.784,9.552-5.514-13.207-7.625,24.253,1.247,8.057-4.652-29.07-16.783-9.552,5.514Zm25.833-30.165,7.6,4.388,8.513-4.915,21.471,12.4,9.8-5.658-21.471-12.4,8.514-4.915-7.6-4.388Zm4.318,31.075,9.8-5.658-9.3-5.371,12.127-7-7.393-4.268-12.126,7-4.983-2.878,13.829-7.984-7.392-4.268-23.63,13.643Z" transform="translate(-286.471 -216.184)" fill="url(#linear-gradient-9)" />
                                <path id="Path_106" data-name="Path 106" d="M318.781,264.044,294.528,262.8l-8.057,4.651,29.07,16.784,9.552-5.514-13.207-7.625,24.253,1.247,8.057-4.652-29.07-16.783-9.552,5.514Zm25.833-30.165,7.6,4.388,8.513-4.915,21.471,12.4,9.8-5.658-21.471-12.4,8.514-4.915-7.6-4.388Zm4.318,31.075,9.8-5.658-9.3-5.371,12.127-7-7.393-4.268-12.126,7-4.983-2.878,13.829-7.984-7.392-4.268-23.63,13.643Z" transform="translate(-286.471 -216.15)" fill="url(#linear-gradient-9)" />
                                <path id="Path_107" data-name="Path 107" d="M318.781,263.944,294.528,262.7l-8.057,4.651,29.07,16.784,9.552-5.514-13.207-7.625,24.253,1.247,8.057-4.652L315.126,250.8l-9.552,5.515Zm25.833-30.165,7.6,4.388,8.513-4.915,21.471,12.4,9.8-5.658-21.471-12.4,8.514-4.915-7.6-4.388Zm4.318,31.075,9.8-5.659-9.3-5.37,12.127-7-7.393-4.268-12.126,7-4.983-2.878,13.829-7.984-7.392-4.268-23.63,13.643Z" transform="translate(-286.471 -216.116)" fill="url(#linear-gradient-9)" />
                                <path id="Path_108" data-name="Path 108" d="M318.781,263.844,294.528,262.6l-8.057,4.651,29.07,16.784,9.552-5.514-13.207-7.625,24.253,1.247,8.057-4.652-29.07-16.783-9.552,5.514Zm25.833-30.165,7.6,4.388,8.513-4.915,21.471,12.4,9.8-5.658-21.471-12.4,8.514-4.915-7.6-4.388Zm4.318,31.075,9.8-5.658-9.3-5.372,12.127-7-7.393-4.268-12.126,7-4.983-2.878,13.829-7.984-7.392-4.268-23.63,13.643Z" transform="translate(-286.471 -216.082)" fill="url(#linear-gradient-9)" />
                                <path id="Path_109" data-name="Path 109" d="M318.781,263.744,294.528,262.5l-8.057,4.651,29.07,16.784,9.552-5.514-13.207-7.625,24.253,1.247,8.057-4.652-29.07-16.783-9.552,5.514Zm25.833-30.165,7.6,4.388,8.513-4.915,21.471,12.4,9.8-5.658-21.471-12.4,8.514-4.915-7.6-4.388Zm4.318,31.075,9.8-5.658-9.3-5.371,12.127-7-7.393-4.268-12.126,7-4.983-2.878,13.829-7.984-7.392-4.268-23.63,13.643Z" transform="translate(-286.471 -216.048)" fill="url(#linear-gradient-9)" />
                                <path id="Path_110" data-name="Path 110" d="M318.781,263.645,294.528,262.4l-8.057,4.651,29.07,16.784,9.552-5.514-13.207-7.625,24.253,1.247,8.057-4.652-29.07-16.783-9.552,5.514Zm25.833-30.165,7.6,4.388,8.513-4.915,21.471,12.4,9.8-5.658-21.471-12.4,8.514-4.915-7.6-4.388Zm4.318,31.075,9.8-5.658-9.3-5.371,12.127-7-7.393-4.268-12.126,7-4.983-2.878,13.829-7.984-7.392-4.268-23.63,13.643Z" transform="translate(-286.471 -216.014)" fill="url(#linear-gradient-9)" />
                                <path id="Path_111" data-name="Path 111" d="M318.781,263.544,294.528,262.3l-8.057,4.651,29.07,16.784,9.552-5.514-13.207-7.625,24.253,1.247,8.057-4.652-29.07-16.783-9.552,5.514Zm25.833-30.165,7.6,4.388,8.513-4.915,21.471,12.4,9.8-5.658-21.471-12.4,8.514-4.915-7.6-4.388Zm4.318,31.075,9.8-5.658-9.3-5.371,12.127-7-7.393-4.268-12.126,7-4.983-2.878,13.829-7.984-7.392-4.268-23.63,13.643Z" transform="translate(-286.471 -215.98)" fill="url(#linear-gradient-9)" />
                                <path id="Path_112" data-name="Path 112" d="M318.781,263.444,294.528,262.2l-8.057,4.651,29.07,16.784,9.552-5.514-13.207-7.625,24.253,1.247,8.057-4.652L315.126,250.3l-9.552,5.515Zm25.833-30.165,7.6,4.388,8.513-4.915,21.471,12.4,9.8-5.658-21.471-12.4,8.514-4.915-7.6-4.388Zm4.318,31.075,9.8-5.659-9.3-5.37,12.127-7-7.393-4.268-12.126,7-4.983-2.878,13.829-7.984-7.392-4.268-23.63,13.643Z" transform="translate(-286.471 -215.946)" fill="url(#linear-gradient-9)" />
                                <path id="Path_113" data-name="Path 113" d="M318.781,263.344,294.528,262.1l-8.057,4.651,29.07,16.784,9.552-5.514-13.207-7.625,24.253,1.247,8.057-4.652-29.07-16.783-9.552,5.514Zm25.833-30.165,7.6,4.388,8.513-4.915,21.471,12.4,9.8-5.658-21.471-12.4,8.514-4.915-7.6-4.388Zm4.318,31.075,9.8-5.658-9.3-5.371,12.127-7-7.393-4.268-12.126,7-4.983-2.878,13.829-7.984-7.392-4.268-23.63,13.643Z" transform="translate(-286.471 -215.911)" fill="url(#linear-gradient-9)" />
                                <path id="Path_114" data-name="Path 114" d="M318.781,263.244,294.528,262l-8.057,4.651,29.07,16.784,9.552-5.514-13.207-7.625,24.253,1.247,8.057-4.652-29.07-16.783-9.552,5.514Zm25.833-30.165,7.6,4.388,8.513-4.915,21.471,12.4,9.8-5.658-21.471-12.4,8.514-4.915-7.6-4.388Zm4.318,31.075,9.8-5.658-9.3-5.371,12.127-7-7.393-4.268-12.126,7-4.983-2.878L350.884,238l-7.392-4.268-23.63,13.643Z" transform="translate(-286.471 -215.877)" fill="url(#linear-gradient-9)" />
                                <path id="Path_115" data-name="Path 115" d="M318.781,263.144,294.528,261.9l-8.057,4.651,29.07,16.784,9.552-5.514-13.207-7.625,24.253,1.247,8.057-4.652-29.07-16.783-9.552,5.514Zm25.833-30.165,7.6,4.388,8.513-4.915,21.471,12.4,9.8-5.658-21.471-12.4,8.514-4.915-7.6-4.388Zm4.318,31.075,9.8-5.658-9.3-5.371,12.127-7-7.393-4.267-12.126,7-4.983-2.878,13.829-7.984-7.392-4.268-23.63,13.643Z" transform="translate(-286.471 -215.843)" fill="url(#linear-gradient-9)" />
                                <path id="Path_116" data-name="Path 116" d="M318.781,263.044,294.528,261.8l-8.057,4.651,29.07,16.784,9.552-5.514-13.207-7.625,24.253,1.247,8.057-4.652-29.07-16.783-9.552,5.514Zm25.833-30.165,7.6,4.388,8.513-4.915,21.471,12.4,9.8-5.658-21.471-12.4,8.514-4.915-7.6-4.388Zm4.318,31.075,9.8-5.658-9.3-5.371,12.127-7-7.393-4.268-12.126,7-4.983-2.878,13.829-7.984-7.392-4.268-23.63,13.643Z" transform="translate(-286.471 -215.809)" fill="url(#linear-gradient-9)" />
                                <path id="Path_117" data-name="Path 117" d="M318.781,262.944,294.528,261.7l-8.057,4.651,29.07,16.784,9.552-5.514-13.207-7.625,24.253,1.247,8.057-4.652L315.126,249.8l-9.552,5.515Zm25.833-30.165,7.6,4.388,8.513-4.915,21.471,12.4,9.8-5.658-21.471-12.4,8.514-4.915-7.6-4.388Zm4.318,31.075,9.8-5.659-9.3-5.37,12.127-7-7.393-4.268-12.126,7-4.983-2.878,13.829-7.984-7.392-4.268-23.63,13.643Z" transform="translate(-286.471 -215.775)" fill="url(#linear-gradient-9)" />
                                <path id="Path_118" data-name="Path 118" d="M318.781,262.844,294.528,261.6l-8.057,4.651,29.07,16.784,9.552-5.514-13.207-7.625,24.253,1.247,8.057-4.652-29.07-16.783-9.552,5.514Zm25.833-30.165,7.6,4.388,8.513-4.915,21.471,12.4,9.8-5.658-21.471-12.4,8.514-4.915-7.6-4.388Zm4.318,31.075,9.8-5.658-9.3-5.371,12.127-7-7.393-4.268-12.126,7-4.983-2.878,13.829-7.984-7.392-4.268-23.63,13.643Z" transform="translate(-286.471 -215.741)" fill="url(#linear-gradient-9)" />
                                <path id="Path_119" data-name="Path 119" d="M318.781,262.744,294.528,261.5l-8.057,4.651,29.07,16.784,9.552-5.514-13.207-7.625,24.253,1.247,8.057-4.652-29.07-16.783-9.552,5.514Zm25.833-30.165,7.6,4.388,8.513-4.915,21.471,12.4,9.8-5.658-21.471-12.4,8.514-4.915-7.6-4.388Zm4.318,31.075,9.8-5.658-9.3-5.371,12.127-7-7.393-4.267-12.126,7-4.983-2.878,13.829-7.984-7.392-4.268-23.63,13.643Z" transform="translate(-286.471 -215.707)" fill="url(#linear-gradient-9)" />
                                <path id="Path_120" data-name="Path 120" d="M318.781,262.644,294.528,261.4l-8.057,4.651,29.07,16.784,9.552-5.514-13.207-7.625,24.253,1.247,8.057-4.652-29.07-16.783-9.552,5.514Zm25.833-30.165,7.6,4.388,8.513-4.915,21.471,12.4,9.8-5.658-21.471-12.4,8.514-4.915-7.6-4.388Zm4.318,31.075,9.8-5.658-9.3-5.371,12.127-7-7.393-4.268-12.126,7-4.983-2.878,13.829-7.984-7.392-4.268-23.63,13.643Z" transform="translate(-286.471 -215.673)" fill="url(#linear-gradient-9)" />
                                <path id="Path_121" data-name="Path 121" d="M318.781,262.544,294.528,261.3l-8.057,4.651,29.07,16.784,9.552-5.514-13.207-7.625,24.253,1.247,8.057-4.652-29.07-16.783-9.552,5.514Zm25.833-30.165,7.6,4.388,8.513-4.915,21.471,12.4,9.8-5.658-21.471-12.4,8.514-4.915-7.6-4.388Zm4.318,31.075,9.8-5.658-9.3-5.371,12.127-7-7.393-4.268-12.126,7-4.983-2.878,13.829-7.984-7.392-4.268-23.63,13.643Z" transform="translate(-286.471 -215.639)" fill="url(#linear-gradient-9)" />
                                <path id="Path_122" data-name="Path 122" d="M318.781,262.444,294.528,261.2l-8.057,4.651,29.07,16.784,9.552-5.514-13.207-7.625,24.253,1.247,8.057-4.652L315.126,249.3l-9.552,5.515Zm25.833-30.165,7.6,4.388,8.513-4.915,21.471,12.4,9.8-5.658-21.471-12.4,8.514-4.915-7.6-4.388Zm4.318,31.075,9.8-5.659-9.3-5.37,12.127-7-7.393-4.268-12.126,7-4.983-2.878,13.829-7.984-7.392-4.268-23.63,13.643Z" transform="translate(-286.471 -215.605)" fill="url(#linear-gradient-9)" />
                                <path id="Path_123" data-name="Path 123" d="M318.781,262.345,294.528,261.1l-8.057,4.651,29.07,16.784,9.552-5.515-13.207-7.625,24.253,1.247,8.057-4.652-29.07-16.783-9.552,5.514Zm25.833-30.165,7.6,4.388,8.513-4.915,21.471,12.4,9.8-5.658-21.471-12.4,8.514-4.915-7.6-4.388Zm4.318,31.075,9.8-5.658-9.3-5.372,12.127-7-7.393-4.268-12.126,7-4.983-2.878,13.829-7.984-7.392-4.268-23.63,13.643Z" transform="translate(-286.471 -215.571)" fill="url(#linear-gradient-9)" />
                                <path id="Path_124" data-name="Path 124" d="M318.781,262.244,294.528,261l-8.057,4.651,29.07,16.784,9.552-5.514-13.207-7.625,24.253,1.247,8.057-4.652-29.07-16.783-9.552,5.514Zm25.833-30.165,7.6,4.388,8.513-4.915,21.471,12.4,9.8-5.658-21.471-12.4,8.514-4.915-7.6-4.388Zm4.318,31.075,9.8-5.658-9.3-5.371,12.127-7-7.393-4.268-12.126,7-4.983-2.878L350.884,237l-7.392-4.268-23.63,13.643Z" transform="translate(-286.471 -215.536)" fill="url(#linear-gradient-9)" />
                                <path id="Path_125" data-name="Path 125" d="M318.781,262.145,294.528,260.9l-8.057,4.651,29.07,16.784,9.552-5.514-13.207-7.625,24.253,1.247,8.057-4.652-29.07-16.783-9.552,5.514Zm25.833-30.165,7.6,4.388,8.513-4.915,21.471,12.4,9.8-5.658-21.471-12.4,8.514-4.915-7.6-4.388Zm4.318,31.075,9.8-5.658-9.3-5.371,12.127-7-7.393-4.268-12.126,7-4.983-2.878,13.829-7.984-7.392-4.268-23.63,13.643Z" transform="translate(-286.471 -215.502)" fill="url(#linear-gradient-9)" />
                                <path id="Path_126" data-name="Path 126" d="M318.781,262.044,294.528,260.8l-8.057,4.651,29.07,16.784,9.552-5.514-13.207-7.625,24.253,1.247,8.057-4.652-29.07-16.783-9.552,5.514Zm25.833-30.165,7.6,4.388,8.513-4.915,21.471,12.4,9.8-5.658-21.471-12.4,8.514-4.915-7.6-4.388Zm4.318,31.075,9.8-5.658-9.3-5.371,12.127-7-7.393-4.268-12.126,7-4.983-2.878,13.829-7.984-7.392-4.268-23.63,13.643Z" transform="translate(-286.471 -215.468)" fill="url(#linear-gradient-9)" />
                                <path id="Path_127" data-name="Path 127" d="M318.781,261.944,294.528,260.7l-8.057,4.651,29.07,16.784,9.552-5.514-13.207-7.625,24.253,1.247,8.057-4.652L315.126,248.8l-9.552,5.515Zm25.833-30.165,7.6,4.388,8.513-4.915,21.471,12.4,9.8-5.658-21.471-12.4,8.514-4.915-7.6-4.388Zm4.318,31.075,9.8-5.659-9.3-5.37,12.127-7-7.393-4.268-12.126,7-4.983-2.878,13.829-7.984-7.392-4.268-23.63,13.643Z" transform="translate(-286.471 -215.434)" fill="url(#linear-gradient-9)" />
                                <path id="Path_128" data-name="Path 128" d="M318.781,261.844,294.528,260.6l-8.057,4.651,29.07,16.784,9.552-5.514-13.207-7.625,24.253,1.247,8.057-4.652-29.07-16.783-9.552,5.514Zm25.833-30.165,7.6,4.388,8.513-4.915,21.471,12.4,9.8-5.658-21.471-12.4,8.514-4.915-7.6-4.388Zm4.318,31.075,9.8-5.658-9.3-5.371,12.127-7-7.393-4.268-12.126,7-4.983-2.878,13.829-7.984-7.392-4.268-23.63,13.643Z" transform="translate(-286.471 -215.4)" fill="url(#linear-gradient-9)" />
                                <path id="Path_129" data-name="Path 129" d="M318.781,261.744,294.528,260.5l-8.057,4.651,29.07,16.784,9.552-5.514-13.207-7.625,24.253,1.247,8.057-4.652-29.07-16.783-9.552,5.514Zm25.833-30.165,7.6,4.388,8.513-4.915,21.471,12.4,9.8-5.658-21.471-12.4,8.514-4.915-7.6-4.388Zm4.318,31.075,9.8-5.658-9.3-5.371,12.127-7-7.393-4.268-12.126,7-4.983-2.878,13.829-7.984-7.392-4.268-23.63,13.643Z" transform="translate(-286.471 -215.366)" fill="url(#linear-gradient-9)" />
                                <path id="Path_130" data-name="Path 130" d="M318.781,261.644,294.528,260.4l-8.057,4.651,29.07,16.784,9.552-5.514-13.207-7.625,24.253,1.247,8.057-4.652-29.07-16.783-9.552,5.514Zm25.833-30.165,7.6,4.388,8.513-4.915,21.471,12.4,9.8-5.658-21.471-12.4,8.514-4.915-7.6-4.388Zm4.318,31.075,9.8-5.658-9.3-5.371,12.127-7-7.393-4.268-12.126,7-4.983-2.878,13.829-7.984-7.392-4.268-23.63,13.643Z" transform="translate(-286.471 -215.332)" fill="url(#linear-gradient-9)" />
                                <path id="Path_131" data-name="Path 131" d="M318.781,261.544,294.528,260.3l-8.057,4.651,29.07,16.784,9.552-5.514-13.207-7.625,24.253,1.247,8.057-4.652-29.07-16.783-9.552,5.514Zm25.833-30.165,7.6,4.388,8.513-4.915,21.471,12.4,9.8-5.658-21.471-12.4,8.514-4.915-7.6-4.388Zm4.318,31.075,9.8-5.658-9.3-5.371,12.127-7-7.393-4.268-12.126,7-4.983-2.878,13.829-7.984-7.392-4.268-23.63,13.643Z" transform="translate(-286.471 -215.298)" fill="url(#linear-gradient-9)" />
                                <path id="Path_132" data-name="Path 132" d="M318.781,261.444,294.528,260.2l-8.057,4.651,29.07,16.784,9.552-5.514-13.207-7.625,24.253,1.247,8.057-4.652L315.126,248.3l-9.552,5.515Zm25.833-30.165,7.6,4.388,8.513-4.915,21.471,12.4,9.8-5.658-21.471-12.4,8.514-4.915-7.6-4.388Zm4.318,31.075,9.8-5.659-9.3-5.37,12.127-7-7.393-4.268-12.126,7-4.983-2.878,13.829-7.984-7.392-4.268-23.63,13.643Z" transform="translate(-286.471 -215.264)" fill="url(#linear-gradient-9)" />
                                <path id="Path_133" data-name="Path 133" d="M318.781,261.344,294.528,260.1l-8.057,4.651,29.07,16.784,9.552-5.514-13.207-7.625,24.253,1.247,8.057-4.652-29.07-16.783-9.552,5.514Zm25.833-30.165,7.6,4.388,8.513-4.915,21.471,12.4,9.8-5.658-21.471-12.4,8.514-4.915-7.6-4.388Zm4.318,31.075,9.8-5.658-9.3-5.371,12.127-7-7.393-4.268-12.126,7-4.983-2.878,13.829-7.984-7.392-4.268-23.63,13.643Z" transform="translate(-286.471 -215.23)" fill="url(#linear-gradient-9)" />
                                <path id="Path_134" data-name="Path 134" d="M318.781,261.244,294.528,260l-8.057,4.651,29.07,16.784,9.552-5.514-13.207-7.625,24.253,1.247,8.057-4.652-29.07-16.783-9.552,5.514Zm25.833-30.165,7.6,4.388,8.513-4.915,21.471,12.4,9.8-5.658-21.471-12.4,8.514-4.915-7.6-4.388Zm4.318,31.075,9.8-5.658-9.3-5.371,12.127-7-7.393-4.268-12.126,7-4.983-2.878L350.884,236l-7.392-4.268-23.63,13.643Z" transform="translate(-286.471 -215.196)" fill="url(#linear-gradient-9)" />
                                <path id="Path_135" data-name="Path 135" d="M318.781,261.144,294.528,259.9l-8.057,4.651,29.07,16.784,9.552-5.514-13.207-7.625,24.253,1.247,8.057-4.652-29.07-16.783-9.552,5.514Zm25.833-30.165,7.6,4.388,8.513-4.915,21.471,12.4,9.8-5.658-21.471-12.4,8.514-4.915-7.6-4.388Zm4.318,31.075,9.8-5.658-9.3-5.371,12.127-7-7.393-4.268-12.126,7-4.983-2.878,13.829-7.984-7.392-4.268-23.63,13.643Z" transform="translate(-286.471 -215.161)" fill="url(#linear-gradient-9)" />
                                <path id="Path_136" data-name="Path 136" d="M318.781,261.044,294.528,259.8l-8.057,4.651,29.07,16.784,9.552-5.514-13.207-7.625,24.253,1.247,8.057-4.652-29.07-16.783-9.552,5.514Zm25.833-30.165,7.6,4.388,8.513-4.915,21.471,12.4,9.8-5.658-21.471-12.4,8.514-4.915-7.6-4.388Zm4.318,31.075,9.8-5.658-9.3-5.371,12.127-7-7.393-4.268-12.126,7-4.983-2.878,13.829-7.984-7.392-4.268-23.63,13.643Z" transform="translate(-286.471 -215.127)" fill="url(#linear-gradient-9)" />
                                <path id="Path_137" data-name="Path 137" d="M318.781,260.944,294.528,259.7l-8.057,4.651,29.07,16.784,9.552-5.514-13.207-7.625,24.253,1.247,8.057-4.652L315.126,247.8l-9.552,5.515Zm25.833-30.165,7.6,4.388,8.513-4.915,21.471,12.4,9.8-5.658-21.471-12.4,8.514-4.915-7.6-4.388Zm4.318,31.075,9.8-5.659-9.3-5.37,12.127-7-7.393-4.268-12.126,7-4.983-2.878,13.829-7.984-7.392-4.268-23.63,13.643Z" transform="translate(-286.471 -215.093)" fill="url(#linear-gradient-9)" />
                                <path id="Path_138" data-name="Path 138" d="M318.781,260.844,294.528,259.6l-8.057,4.651,29.07,16.784,9.552-5.514-13.207-7.625,24.253,1.247,8.057-4.652-29.07-16.783-9.552,5.514Zm25.833-30.165,7.6,4.388,8.513-4.915,21.471,12.4,9.8-5.658-21.471-12.4,8.514-4.915-7.6-4.388Zm4.318,31.075,9.8-5.658-9.3-5.371,12.127-7-7.393-4.268-12.126,7-4.983-2.877,13.829-7.984-7.392-4.268-23.63,13.643Z" transform="translate(-286.471 -215.059)" fill="url(#linear-gradient-9)" />
                                <path id="Path_139" data-name="Path 139" d="M318.781,260.744,294.528,259.5l-8.057,4.651,29.07,16.784,9.552-5.514-13.207-7.625,24.253,1.247,8.057-4.652-29.07-16.783-9.552,5.514Zm25.833-30.165,7.6,4.388,8.513-4.915,21.471,12.4,9.8-5.658-21.471-12.4,8.514-4.915-7.6-4.388Zm4.318,31.075,9.8-5.658-9.3-5.371,12.127-7-7.393-4.268-12.126,7-4.983-2.877,13.829-7.984-7.392-4.268-23.63,13.643Z" transform="translate(-286.471 -215.025)" fill="url(#linear-gradient-9)" />
                                <path id="Path_140" data-name="Path 140" d="M318.781,260.644,294.528,259.4l-8.057,4.651,29.07,16.784,9.552-5.514-13.207-7.625,24.253,1.247,8.057-4.652-29.07-16.783-9.552,5.514Zm25.833-30.165,7.6,4.388,8.513-4.915,21.471,12.4,9.8-5.658-21.471-12.4,8.514-4.915-7.6-4.388Zm4.318,31.075,9.8-5.658-9.3-5.371,12.127-7-7.393-4.268-12.126,7-4.983-2.877,13.829-7.984-7.392-4.268-23.63,13.643Z" transform="translate(-286.471 -214.991)" fill="url(#linear-gradient-9)" />
                            </g>
                            <path id="Path_141" data-name="Path 141" d="M318.781,260.644,294.528,259.4l-8.057,4.651,29.07,16.784,9.552-5.514-13.207-7.625,24.253,1.247,8.057-4.652-29.07-16.783-9.552,5.514Zm25.833-30.165,7.6,4.388,8.513-4.915,21.471,12.4,9.8-5.658-21.471-12.4,8.514-4.915-7.6-4.388Zm4.318,31.075,9.8-5.658-9.3-5.371,12.127-7-7.393-4.268-12.126,7-4.983-2.877,13.829-7.984-7.392-4.268-23.63,13.643Z" transform="translate(-286.471 -214.991)" fill="url(#linear-gradient-90)" />
                        </g>
                    </g>
                </g>
                <path id="Path_142" data-name="Path 142" d="M247.326,150.056l56.508,32.62,86.771-13.48,16.964-37.119V-20.778H247.326Z" transform="translate(-84.319 7.084)" fill="url(#linear-gradient-91)" style="mix-blend-mode: overlay;isolation: isolate" />
                <g id="Group_75" data-name="Group 75" transform="translate(185.507 -19.369)">
                    <ellipse id="Ellipse_19" data-name="Ellipse 19" cx="36.581" cy="14.91" rx="36.581" ry="14.91" transform="translate(22.009 163.983)" fill="url(#radial-gradient-14)" style="mix-blend-mode: multiply;isolation: isolate" />
                    <g id="Group_74" data-name="Group 74">
                        <g id="Group_66" data-name="Group 66" transform="translate(32.197 40.955)">
                            <path id="Path_143" data-name="Path 143" d="M360.264,143.176V109.827l-27.654-17.2ZM330.317,87.489l29.947,18.627V32.753Z" transform="translate(-330.317 -32.753)" fill="url(#linear-gradient-92)" />
                            <path id="Path_144" data-name="Path 144" d="M375.755,143.176l27.661-50.553-27.661,17.2Zm0-110.423v73.364l29.954-18.627Z" transform="translate(-345.808 -32.753)" fill="url(#linear-gradient-93)" />
                        </g>
                        <g id="Group_73" data-name="Group 73">
                            <g id="Group_67" data-name="Group 67" transform="translate(45.993)">
                                <ellipse id="Ellipse_20" data-name="Ellipse 20" cx="4.908" cy="82.018" rx="4.908" ry="82.018" transform="translate(11.243)" fill="url(#radial-gradient-15)" style="mix-blend-mode: color-dodge;isolation: isolate" />
                                <ellipse id="Ellipse_21" data-name="Ellipse 21" cx="16.151" cy="29.956" rx="16.151" ry="29.956" transform="translate(0 52.062)" fill="url(#radial-gradient-16)" style="mix-blend-mode: screen;isolation: isolate" />
                            </g>
                            <g id="Group_68" data-name="Group 68" transform="translate(45.993 53.062)">
                                <ellipse id="Ellipse_22" data-name="Ellipse 22" cx="4.908" cy="82.018" rx="4.908" ry="82.018" transform="translate(11.243 0)" fill="url(#radial-gradient-17)" style="mix-blend-mode: color-dodge;isolation: isolate" />
                                <ellipse id="Ellipse_23" data-name="Ellipse 23" cx="16.151" cy="29.956" rx="16.151" ry="29.956" transform="translate(0 52.062)" fill="url(#radial-gradient-18)" style="mix-blend-mode: screen;isolation: isolate" />
                            </g>
                            <g id="Group_69" data-name="Group 69" transform="translate(0 9.885)">
                                <path id="Path_145" data-name="Path 145" d="M281.707,129.838c2.383,1.292,21.823-29.938,43.422-69.754S362.3-13.058,359.921-14.35,338.1,15.587,316.5,55.4,279.324,128.545,281.707,129.838Z" transform="translate(-281.466 14.389)" fill="url(#radial-gradient-19)" style="mix-blend-mode: color-dodge;isolation: isolate" />
                                <ellipse id="Ellipse_24" data-name="Ellipse 24" cx="29.956" cy="16.151" rx="29.956" ry="16.151" transform="translate(10.868 90.763) rotate(-61.523)" fill="url(#radial-gradient-20)" style="mix-blend-mode: screen;isolation: isolate" />
                            </g>
                            <g id="Group_70" data-name="Group 70" transform="translate(8.844 51.171)">
                                <path id="Path_146" data-name="Path 146" d="M371.286,193.579c2.4-1.259-12.7-34.8-33.728-74.923S297.536,47.032,295.135,48.29s12.7,34.8,33.728,74.923S368.885,194.837,371.286,193.579Z" transform="translate(-294.884 -48.254)" fill="url(#radial-gradient-21)" style="mix-blend-mode: color-dodge;isolation: isolate" />
                                <ellipse id="Ellipse_25" data-name="Ellipse 25" cx="16.151" cy="29.956" rx="16.151" ry="29.956" transform="matrix(0.886, -0.464, 0.464, 0.886, 10.115, 53.646)" fill="url(#radial-gradient-22)" style="mix-blend-mode: screen;isolation: isolate" />
                            </g>
                            <g id="Group_71" data-name="Group 71" transform="translate(38.794 51.171)">
                                <path id="Path_147" data-name="Path 147" d="M340.578,193.579c-2.4-1.259,12.7-34.8,33.728-74.923S414.329,47.032,416.73,48.29s-12.7,34.8-33.728,74.923S342.979,194.837,340.578,193.579Z" transform="translate(-340.327 -48.254)" fill="url(#radial-gradient-23)" style="mix-blend-mode: color-dodge;isolation: isolate" />
                                <ellipse id="Ellipse_26" data-name="Ellipse 26" cx="29.956" cy="16.151" rx="29.956" ry="16.151" transform="translate(10.115 91.716) rotate(-62.339)" fill="url(#radial-gradient-24)" style="mix-blend-mode: screen;isolation: isolate" />
                            </g>
                            <g id="Group_72" data-name="Group 72" transform="translate(45.592 9.885)">
                                <path id="Path_148" data-name="Path 148" d="M429.1,129.838c-2.383,1.292-21.823-29.938-43.422-69.754S348.5-13.058,350.882-14.35,372.706,15.587,394.3,55.4,431.479,128.545,429.1,129.838Z" transform="translate(-350.642 14.389)" fill="url(#radial-gradient-25)" style="mix-blend-mode: color-dodge;isolation: isolate" />
                                <ellipse id="Ellipse_27" data-name="Ellipse 27" cx="16.151" cy="29.956" rx="16.151" ry="29.956" transform="translate(10.868 53.502) rotate(-28.477)" fill="url(#radial-gradient-26)" style="mix-blend-mode: screen;isolation: isolate" />
                            </g>
                        </g>
                    </g>
                </g>
            </g>
        </g>
    </g>
</svg>
  