<svg xmlns="http://www.w3.org/2000/svg" width="362" height="862" viewBox="0 0 362 862">
    <path id="Path_24" data-name="Path 24" d="M-4582.8,3954.3s59.1-54.747,115.574-124.991c33.347-41.477,103.3-131.263,138.326-138.509,64.572-24.955,210.61,315.369,298.4,228.9,41.9-44.982,41.34-115.292,100.3-162.281s79.061-53.83,112.4-66.618" transform="translate(4004.299 4631.3) rotate(90)" fill="none" stroke="#39447e" stroke-width="1" opacity="0.7" />
    <circle id="Ellipse_2" data-name="Ellipse 2" cx="18.5" cy="18.5" r="18.5" transform="translate(53 540)" fill="#71d7b1" opacity="0.4" />
    <circle id="Ellipse_1" data-name="Ellipse 1" cx="6.5" cy="6.5" r="6.5" transform="translate(65 552)" fill="#72d9b1" />
    <circle id="Ellipse_2-2" data-name="Ellipse 2" cx="18.5" cy="18.5" r="18.5" transform="translate(295 795)" fill="#71d7b1" opacity="0.4" />
    <circle id="Ellipse_2-3" data-name="Ellipse 2" cx="18.5" cy="18.5" r="18.5" transform="translate(295 285)" fill="#71d7b1" opacity="0.4" />
    <circle id="Ellipse_1-2" data-name="Ellipse 1" cx="6.5" cy="6.5" r="6.5" transform="translate(307 297)" fill="#72d9b1" />
    <circle id="Ellipse_2-4" data-name="Ellipse 2" cx="18.5" cy="18.5" r="18.5" transform="translate(30 30)" fill="#71d7b1" opacity="0.4" />
    <circle id="Ellipse_1-3" data-name="Ellipse 1" cx="6.5" cy="6.5" r="6.5" transform="translate(42 42)" fill="#72d9b1" />
</svg>
  