<svg xmlns="http://www.w3.org/2000/svg" width="1840.735" height="365.689" viewBox="0 0 1840.735 365.689">
    <g id="Group_807" data-name="Group 807" transform="translate(-5425.97 1883.692)">
        <path id="Path_24" data-name="Path 24" d="M-4582.8,4045.2s142.179-73.633,278.042-168.109c80.225-55.785,196.955-142.981,281.212-152.727C-3868.2,3690.8-3521,4059.9-3309.8,3943.6c100.8-60.5,155.15-100,297-163.2s190.2-72.4,270.4-89.6" transform="translate(10009 -5574.003)" fill="none" stroke="#39447e" stroke-width="1" opacity="0.6" />
        <g id="Group_23" data-name="Group 23" transform="translate(9831 -5580.003)">
            <circle id="Ellipse_2" data-name="Ellipse 2" cx="18.5" cy="18.5" r="18.5" transform="translate(-4110 3844)" fill="#71d7b1" opacity="0.4" />
            <circle id="Ellipse_1" data-name="Ellipse 1" cx="6.5" cy="6.5" r="6.5" transform="translate(-4098 3856)" fill="#72d9b1" />
        </g>
        <g id="Group_24" data-name="Group 24" transform="translate(10224 -5676.003)">
            <circle id="Ellipse_2-2" data-name="Ellipse 2" cx="18.5" cy="18.5" r="18.5" transform="translate(-4110 3844)" fill="#6edab4" opacity="0.4" />
            <circle id="Ellipse_1-2" data-name="Ellipse 1" cx="6.5" cy="6.5" r="6.5" transform="translate(-4098 3856)" fill="#6edab4" />
        </g>
        <g id="Group_25" data-name="Group 25" transform="translate(10676 -5472.003)">
            <circle id="Ellipse_2-3" data-name="Ellipse 2" cx="18.5" cy="18.5" r="18.5" transform="translate(-4110 3844)" fill="#6adbb7" opacity="0.4" />
            <circle id="Ellipse_1-3" data-name="Ellipse 1" cx="6.5" cy="6.5" r="6.5" transform="translate(-4098 3856)" fill="#6edab4" />
        </g>
        <g id="Group_26" data-name="Group 26" transform="translate(11041 -5636.003)">
            <circle id="Ellipse_2-4" data-name="Ellipse 2" cx="18.5" cy="18.5" r="18.5" transform="translate(-4110 3844)" fill="#6adbb7" opacity="0.4" />
            <circle id="Ellipse_1-4" data-name="Ellipse 1" cx="6.5" cy="6.5" r="6.5" transform="translate(-4098 3856)" fill="#6adbb7" />
        </g>
        <text id="Q1_2022" data-name="Q1, 2022" transform="translate(5664 -1632.003)" fill="#6adbb7" font-size="30" font-family="ArialMT, Arial">
            <tspan x="0" y="0">Q1, 2022</tspan>
        </text>
        <text id="Q2_2022" data-name="Q2, 2022" transform="translate(6051 -1728.003)" fill="#6adbb7" font-size="30" font-family="ArialMT, Arial">
            <tspan x="0" y="0">Q2, 2022</tspan>
        </text>
        <text id="Q3_2022" data-name="Q3, 2022" transform="translate(6500 -1524.003)" fill="#6adbb7" font-size="30" font-family="ArialMT, Arial">
            <tspan x="0" y="0">Q3, 2022</tspan>
        </text>
        <text id="Q4_2022" data-name="Q4, 2022" transform="translate(6863 -1688.003)" fill="#6adbb7" font-size="30" font-family="ArialMT, Arial">
            <tspan x="0" y="0">Q4, 2022</tspan>
        </text>
    </g>
</svg>
  